<svg width="386" height="355" viewBox="0 0 386 355" fill="none" xmlns="http://www.w3.org/2000/svg">
<g clip-path="url(#clip0_5_394)" filter="url(#filter0_d_5_394)">
<path d="M181.975 346.928C280.268 346.928 359.95 302.809 359.95 248.386C359.95 193.962 280.268 149.844 181.975 149.844C83.6821 149.844 4 193.962 4 248.386C4 302.809 83.6821 346.928 181.975 346.928Z" fill="#F5F5F5"/>
<path d="M166.413 304.685L93.1383 264.109C91.3253 263.094 91.3253 261.5 93.1383 260.486L172.608 216.504C174.421 215.49 177.367 215.49 179.18 216.504L252.455 257.08C254.268 258.095 254.268 259.689 252.455 260.703L173.061 304.685C171.172 305.627 168.226 305.627 166.413 304.685Z" fill="#E0E0E0"/>
<path d="M292.416 301.352C311.482 301.352 326.939 292.788 326.939 282.223C326.939 271.659 311.482 263.094 292.416 263.094C273.35 263.094 257.894 271.659 257.894 282.223C257.894 292.788 273.35 301.352 292.416 301.352Z" fill="#E0E0E0"/>
<path d="M48.4939 286.933L17.8241 269.905C16.0867 268.964 16.0867 267.369 17.8241 266.427L196.403 167.523C198.141 166.581 200.936 166.581 202.673 167.523L233.343 184.551C235.081 185.493 235.081 187.087 233.343 188.029L54.7638 286.933C53.0263 287.875 50.2313 287.875 48.4939 286.933Z" fill="#E0E0E0"/>
<path d="M158.859 253.24L185.223 238.604C187.943 237.082 189.302 235.126 189.302 233.17C189.302 231.213 189.302 229.619 189.302 229.619L161.956 214.838C160.521 214.041 159.313 212.085 159.313 210.49V183.464L113.232 209.041V236.068C113.232 237.662 114.441 239.618 115.876 240.415L139.143 253.313C144.582 256.283 153.42 256.283 158.859 253.24Z" fill="#263238"/>
<path d="M124.337 241.575V245.053L115.876 240.415C114.441 239.618 113.232 237.662 113.232 236.068V209.041L121.995 204.187C122.146 206.36 122.373 208.534 122.524 210.708L116.33 214.113V234.256C116.33 235.851 117.463 237.807 118.974 238.604L124.337 241.575Z" fill="black"/>
<path d="M116.405 234.256C116.405 235.85 117.614 237.807 119.049 238.604L139.143 249.69C144.582 252.733 153.42 252.733 158.859 249.69L185.299 235.053C190.738 232.01 190.738 227.156 185.299 224.112L165.205 213.026C163.769 212.229 162.561 210.273 162.561 208.679V188.463L116.481 214.041V234.256H116.405Z" fill="#455A64"/>
<path d="M170.493 216.07L165.129 213.099C163.694 212.302 162.485 210.346 162.485 208.751V188.536L116.405 214.113V234.329C116.405 235.923 117.614 237.879 119.049 238.676L124.337 241.575L170.493 216.07Z" fill="#37474F"/>
<path d="M189.302 229.619C189.302 229.619 189.302 231.141 189.302 233.17C189.302 235.198 187.943 237.082 185.223 238.604L158.859 253.24C156.215 254.689 152.892 255.414 149.492 255.486V252.009C152.892 251.936 156.291 251.211 158.859 249.762L185.223 235.126C187.943 233.604 189.302 231.648 189.302 229.619Z" fill="#37474F"/>
<path d="M42.3747 264.544C44.1122 265.486 46.9072 265.413 48.7202 264.399C71.3825 251.864 204.335 178.247 226.997 165.712C228.81 164.697 230.246 162.234 230.246 160.278V26.1591C230.246 24.1303 228.886 21.7392 227.148 20.7973C225.411 19.8553 222.616 19.9278 220.803 20.9422L42.5258 119.629C40.7128 120.643 39.2775 123.107 39.2775 125.063V259.182C39.3531 261.211 40.7128 263.602 42.3747 264.544Z" fill="#455A64"/>
<path d="M48.7958 264.471L227.073 165.784C228.886 164.77 230.321 162.306 230.321 160.35V26.1591C230.321 24.1303 228.886 23.3332 227.073 24.3476L48.7958 123.034C46.9829 124.049 45.5476 126.512 45.5476 128.469V262.587C45.472 264.616 46.9829 265.486 48.7958 264.471Z" fill="#37474F"/>
<path d="M48.2669 268.022C46.4539 268.819 43.9611 268.746 42.3747 267.877C40.7128 266.935 39.2775 264.544 39.2775 262.515V254.182L45.4719 257.588V265.993C45.4719 267.804 46.6806 268.674 48.2669 268.022Z" fill="#37474F"/>
<path d="M45.4717 257.588V265.993C45.4717 268.022 46.907 268.819 48.72 267.804L226.997 169.117C228.81 168.103 230.245 165.639 230.245 163.683V155.278L45.4717 257.588Z" fill="#455A64"/>
<path d="M51.6662 241.792V130.425C51.6662 129.193 52.5727 127.744 53.6303 127.165L222.163 33.8396C223.22 33.2599 224.127 33.6947 224.127 34.9264V146.293C224.127 147.525 223.22 148.974 222.163 149.554L53.6303 242.879C52.4972 243.531 51.6662 243.024 51.6662 241.792Z" fill="#3399FF"/>
<path d="M51.6662 241.792V130.425C51.6662 129.193 52.5727 127.744 53.6303 127.165L222.163 33.8396C223.22 33.2599 224.127 33.6947 224.127 34.9264V146.293C224.127 147.525 223.22 148.974 222.163 149.554L53.6303 242.879C52.4972 243.531 51.6662 243.024 51.6662 241.792Z" fill="#3399FF"/>
<path opacity="0.8" d="M51.6662 241.792V130.425C51.6662 129.193 52.5727 127.744 53.6303 127.165L222.163 33.8396C223.22 33.2599 224.127 33.6947 224.127 34.9264V146.293C224.127 147.525 223.22 148.974 222.163 149.554L53.6303 242.879C52.4972 243.531 51.6662 243.024 51.6662 241.792Z" fill="white"/>
<path d="M137.934 209.549C136.424 210.346 135.215 212.374 135.215 214.041C135.215 215.707 136.424 216.359 137.934 215.562C139.445 214.765 140.654 212.737 140.654 211.07C140.654 209.404 139.37 208.751 137.934 209.549Z" fill="#3399FF"/>
<path d="M46.4539 125.426C45.8496 126.44 45.4719 127.527 45.4719 128.541V257.66L39.2775 254.255V125.136C39.2775 124.121 39.6552 123.035 40.2596 122.02L46.4539 125.426Z" fill="#263238"/>
<path d="M85.9623 136.946L186.734 81.1541L190.738 83.4003C191.795 83.98 192.626 85.4291 192.626 86.516V157.814C192.626 158.973 191.795 160.35 190.738 160.93L93.7431 214.621C92.6855 215.2 91.0236 215.2 89.966 214.621L87.8509 213.461C86.7933 212.882 85.9623 211.432 85.9623 210.346V136.946Z" fill="#3399FF"/>
<path opacity="0.2" d="M85.9623 136.946L186.734 81.1541L190.738 83.4003C191.795 83.98 192.626 85.4291 192.626 86.516V157.814C192.626 158.973 191.795 160.35 190.738 160.93L93.7431 214.621C92.6855 215.2 91.0236 215.2 89.966 214.621L87.8509 213.461C86.7933 212.882 85.9623 211.432 85.9623 210.346V136.946Z" fill="black"/>
<path d="M186.205 74.8504L186.583 74.633L184.997 73.7635C184.846 73.6911 184.695 73.6186 184.544 73.5462L140.276 57.8229C139.068 57.3882 137.557 57.8954 136.877 58.8373L87.2465 128.324C86.5667 129.338 85.9623 131.077 85.9623 132.309C85.9623 134.265 85.9623 136.946 85.9623 136.946L87.4732 137.816L186.659 81.1542V76.5169C186.734 75.9373 186.508 75.3576 186.205 74.8504Z" fill="#3399FF"/>
<path opacity="0.1" d="M138.916 59.1996C138.69 59.3445 138.539 59.5619 138.388 59.7068L88.7572 129.193C88.3795 129.701 88.0773 130.425 87.8507 131.15L86.3398 130.28C86.4154 129.918 86.5665 129.556 86.7175 129.266C86.7931 129.121 86.8686 128.976 86.9442 128.831C86.9442 128.831 86.9442 128.759 87.0197 128.759C87.0953 128.614 87.1708 128.469 87.2463 128.324L136.877 58.8373C136.952 58.6924 137.028 58.62 137.103 58.5475C137.179 58.4751 137.255 58.4026 137.406 58.3301L138.916 59.1996Z" fill="black"/>
<path opacity="0.35" d="M186.583 74.6331C186.432 74.5606 186.281 74.4882 186.13 74.4157L141.787 58.62C140.881 58.2577 139.672 58.5475 138.917 59.1272L137.406 58.2577C138.237 57.6781 139.37 57.3882 140.276 57.7505L184.619 73.5462C184.77 73.6187 184.921 73.6911 185.072 73.7636L186.583 74.6331Z" fill="white"/>
<path d="M87.0197 128.759C87.0953 128.614 87.1708 128.469 87.3219 128.324C87.1708 128.469 87.0953 128.614 87.0197 128.759Z" fill="#3399FF"/>
<path d="M137.103 58.5475C137.179 58.4751 137.254 58.4026 137.405 58.3301C137.254 58.4026 137.179 58.4751 137.103 58.5475Z" fill="#3399FF"/>
<path d="M86.3398 130.353C86.4909 129.99 86.5665 129.628 86.7175 129.266C86.5665 129.628 86.4154 129.99 86.3398 130.353Z" fill="#3399FF"/>
<path d="M86.7177 129.266C86.7932 129.121 86.8687 128.976 86.9443 128.831C86.8687 128.976 86.7932 129.121 86.7177 129.266Z" fill="#3399FF"/>
<path opacity="0.2" d="M136.877 58.8373C136.952 58.7649 137.028 58.62 137.103 58.5475C137.028 58.6924 136.952 58.7649 136.877 58.8373Z" fill="black"/>
<path d="M138.388 59.7068L88.7574 129.193C88.0775 130.208 87.4732 131.947 87.4732 133.178C87.4732 135.135 87.4732 137.816 87.4732 137.816L188.245 82.0236V77.3864C188.245 76.1546 187.263 74.8504 186.13 74.4881L141.787 58.6924C140.654 58.2577 139.068 58.6924 138.388 59.7068Z" fill="#3399FF"/>
<path opacity="0.05" d="M188.245 77.3864C188.245 76.8068 188.018 76.2271 187.716 75.7924L87.8509 131.15C87.6243 131.802 87.4732 132.526 87.4732 133.106C87.4732 135.062 87.4732 137.743 87.4732 137.743L188.245 81.9512V77.3864Z" fill="black"/>
<path d="M130.682 146.583C132.722 151.148 133.78 156.075 133.78 161.22V164.045L96.16 182.812V174.044V139.41C96.16 138.54 96.2356 137.743 96.4622 136.946C96.5377 136.657 96.6133 136.294 96.7644 136.004C96.8399 135.859 96.8399 135.715 96.9154 135.57C97.0665 135.135 97.2932 134.628 97.5198 134.265C97.8975 133.541 98.4263 132.889 98.9551 132.237C99.1061 132.019 99.2572 131.874 99.4838 131.729C99.6349 131.584 99.8616 131.367 100.013 131.222C100.617 130.715 101.221 130.28 101.901 129.918C105.527 127.889 109.757 127.889 113.383 129.918C113.383 129.918 114.063 129.628 115.272 129.193C120.862 132.526 125.394 137.091 128.567 142.308C129.323 143.757 130.002 145.134 130.682 146.583Z" fill="#E0E0E0"/>
<path d="M251.549 257.66L169.737 303.018V298.816L251.549 253.385V257.66Z" fill="#F5F5F5"/>
<path d="M130.683 146.583C130.078 145.134 129.323 143.757 128.492 142.381C127.888 141.366 127.283 140.424 126.528 139.482C126.301 139.192 126.15 138.975 125.924 138.685C125.772 138.468 125.546 138.251 125.395 137.961C125.244 137.743 125.093 137.598 124.942 137.381C124.866 137.309 124.866 137.236 124.79 137.164C124.564 136.946 124.413 136.729 124.186 136.439C124.111 136.294 124.035 136.222 123.884 136.149C123.733 135.932 123.582 135.787 123.355 135.642C122.977 135.207 122.6 134.845 122.146 134.483C121.92 134.265 121.693 134.048 121.467 133.831C121.391 133.758 121.316 133.686 121.24 133.613C121.013 133.396 120.787 133.251 120.636 133.034C120.409 132.816 120.107 132.599 119.88 132.382C119.654 132.237 119.427 132.019 119.276 131.874C119.2 131.802 119.049 131.729 118.974 131.657C118.747 131.44 118.52 131.295 118.218 131.077C117.916 130.86 117.538 130.643 117.236 130.425C116.934 130.208 116.556 129.99 116.254 129.773C115.877 129.556 115.574 129.338 115.197 129.121C115.121 129.048 115.046 129.048 114.97 128.976C114.668 128.831 114.366 128.614 114.064 128.469C113.761 128.324 113.535 128.179 113.233 128.034C112.779 127.817 112.326 127.599 111.797 127.454C111.269 127.237 110.74 127.165 110.211 127.02C110.06 126.947 109.833 126.947 109.682 126.947C108.927 126.802 108.247 126.802 107.491 126.802C107.265 126.802 107.114 126.802 106.887 126.802C106.585 126.802 106.283 126.802 106.056 126.875C105.905 126.875 105.754 126.875 105.603 126.947C105.527 126.947 105.376 126.947 105.301 127.02C105.15 127.02 105.074 127.02 104.923 127.092C104.923 127.092 104.923 127.092 104.848 127.092C104.696 127.165 104.47 127.165 104.319 127.237C104.168 127.237 104.017 127.309 103.941 127.309C103.866 127.309 103.79 127.382 103.714 127.382C103.563 127.454 103.412 127.454 103.261 127.527C102.883 127.672 102.506 127.817 102.128 127.962C101.901 128.034 101.675 128.179 101.448 128.251C101.373 128.251 101.297 128.324 101.222 128.324C101.07 128.396 100.995 128.469 100.844 128.541C100.693 128.614 100.617 128.686 100.466 128.759C100.013 128.976 99.6352 129.266 99.182 129.556L99.1064 129.628C98.8798 129.773 98.7287 129.918 98.5021 130.135C98.351 130.28 98.1999 130.425 98.0488 130.498C97.9733 130.57 97.8978 130.643 97.8222 130.715C97.4445 131.077 97.0668 131.512 96.7647 131.874C96.6136 132.019 96.4625 132.237 96.3869 132.382C96.2359 132.599 96.0848 132.816 95.9337 133.034C95.7826 133.251 95.7071 133.468 95.556 133.686C95.4049 133.976 95.2538 134.265 95.1027 134.628C95.0272 134.773 94.9517 134.918 94.9517 135.062C94.9517 135.135 94.8761 135.207 94.8761 135.28C94.8006 135.497 94.725 135.715 94.6495 136.004C94.574 136.222 94.4984 136.439 94.4984 136.729C94.4229 136.874 94.4229 137.019 94.4229 137.236C94.4229 137.309 94.4229 137.381 94.4229 137.454C94.4229 137.598 94.3473 137.743 94.3473 137.888C94.3473 138.106 94.2718 138.323 94.2718 138.54C94.2718 138.83 94.2718 139.12 94.2718 139.41V174.044H98.1244V139.41C98.1244 136.222 99.8618 133.323 102.732 131.729C105.603 130.135 109.078 130.135 111.948 131.729C118.445 135.352 123.657 140.931 126.679 147.525L131.287 148.612C131.287 147.96 130.985 147.235 130.683 146.583Z" fill="#EBEBEB"/>
<path d="M190.134 158.756C190.134 158.828 190.058 158.828 190.058 158.901L148.057 146.148C144.733 144.772 140.881 145.859 138.992 148.829L94.1209 212.809L92.4589 213.751C91.9302 214.041 91.4769 214.041 91.1747 213.896L137.33 147.96C139.219 144.989 143.147 143.902 146.395 145.279L190.134 158.756Z" fill="#3399FF"/>
<path opacity="0.4" d="M134.762 155.061L134.837 154.988L93.9697 212.809L92.3078 213.751C91.779 214.041 91.3257 214.041 91.0236 213.896L133.176 154.191L134.762 155.061Z" fill="white"/>
<path opacity="0.4" d="M190.134 158.756C190.134 158.828 190.058 158.828 190.058 158.901L148.057 146.148C144.733 144.772 140.881 145.859 138.992 148.829L137.33 147.887C139.219 144.989 143.071 143.83 146.395 145.206L190.134 158.756Z" fill="white"/>
<path d="M192.626 86.0813C192.551 85.5741 192.249 85.4292 191.871 85.6465C191.72 85.719 191.569 85.9364 191.418 86.1537L191.191 86.4436L149.719 146.873L143.525 155.133C142.845 156.075 141.334 156.655 140.125 156.365L134.762 155.133L93.9695 140.714C93.6674 140.642 93.3652 140.642 93.1386 140.714C93.0631 140.714 92.912 140.787 92.8364 140.787L94.3472 139.917L133.402 153.684L138.539 155.423C139.747 155.713 141.258 155.133 141.938 154.191L148.133 145.931L189.756 85.2118C189.907 84.9944 190.058 84.922 190.209 84.777L186.583 82.7482L188.094 81.8788L190.587 83.2554C191.644 83.8351 192.4 84.9944 192.626 86.0813Z" fill="#3399FF"/>
<path opacity="0.4" d="M149.719 146.8L143.525 155.061C142.845 156.003 141.334 156.582 140.125 156.292L134.762 155.061L134.838 154.988L135.064 154.626L138.539 155.423C139.748 155.713 141.259 155.133 141.938 154.191L148.057 146.003L149.719 146.8Z" fill="white"/>
<path opacity="0.1" d="M190.738 83.3279L188.245 81.9512L186.734 82.8207L190.36 84.8495C190.209 84.9944 189.983 85.0669 189.907 85.2843L148.284 145.931L148.208 146.003L149.719 146.801L191.191 86.3711L191.418 86.0813C191.569 85.8639 191.72 85.719 191.871 85.5741C192.249 85.3567 192.551 85.5016 192.627 86.0088C192.4 84.9944 191.645 83.8351 190.738 83.3279Z" fill="black"/>
<path d="M94.8762 141.873L85.9623 136.946V210.346C85.9623 211.505 86.7933 212.882 87.8509 213.461L89.966 214.621C91.0236 215.2 92.6855 215.2 93.7431 214.621L94.8006 214.041V141.873H94.8762Z" fill="#3399FF"/>
<path opacity="0.15" d="M94.8762 141.873L85.9623 136.946V210.346C85.9623 211.505 86.7933 212.882 87.8509 213.461L89.966 214.621C91.0236 215.2 92.6855 215.2 93.7431 214.621L94.8006 214.041V141.873H94.8762Z" fill="black"/>
<path d="M191.191 86.3711V156.872C191.191 157.452 190.965 158.104 190.587 158.683C190.285 159.191 189.907 159.625 189.454 159.843L189.378 159.915C189.303 159.915 189.303 159.988 189.227 159.988L92.2323 213.679C92.0812 213.751 92.0057 213.823 91.8546 213.823C91.8546 213.751 91.8546 213.606 91.8546 213.461V142.163C91.8546 141.004 92.8366 140.279 93.9698 140.569L134.762 154.988L140.125 156.22C141.334 156.51 142.845 155.93 143.525 154.988L149.719 146.728L191.191 86.3711Z" fill="#455A64"/>
<path d="M192.626 86.516V157.814C192.626 158.394 192.4 159.046 192.022 159.625C191.72 160.133 191.342 160.567 190.889 160.857H190.813C190.738 160.857 190.738 160.93 190.662 160.93L93.6675 214.621C93.1387 214.91 92.6854 214.91 92.3833 214.765C92.0811 214.621 91.8545 214.331 91.7789 213.896C91.7789 213.823 91.7789 213.679 91.7789 213.534V142.236C91.7789 141.076 92.761 140.352 93.8941 140.642L134.686 155.061L140.05 156.292C141.258 156.582 142.769 156.003 143.449 155.061L149.643 146.8L191.116 86.3711L191.342 86.0813C192.098 85.1394 192.626 85.3567 192.626 86.516Z" fill="#3399FF"/>
<path d="M190.738 160.93C190.814 160.93 190.814 160.857 190.889 160.857L190.965 160.785C191.418 160.495 191.796 160.06 192.098 159.625C192.476 159.046 192.702 158.394 192.702 157.814L149.795 146.801L178.5 167.741L190.738 160.93Z" fill="#3399FF"/>
<path opacity="0.2" d="M190.738 160.93C190.814 160.93 190.814 160.857 190.889 160.857L190.965 160.785C191.418 160.495 191.796 160.06 192.098 159.625C192.476 159.046 192.702 158.394 192.702 157.814L149.795 146.801L178.5 167.741L190.738 160.93Z" fill="black"/>
<path d="M91.9303 213.606C91.9303 214.186 92.1569 214.621 92.5346 214.838C92.8368 214.983 93.29 214.983 93.8188 214.693L127.208 196.216L134.838 155.133L91.9303 212.447V213.606Z" fill="#3399FF"/>
<path opacity="0.15" d="M138.917 148.829L92.4589 214.838C92.0812 214.621 91.8546 214.258 91.8546 213.679V212.519L137.179 148.032L138.917 148.829Z" fill="black"/>
<path d="M192.098 159.625C191.795 160.133 191.418 160.495 190.964 160.785L190.889 160.857L93.8186 214.621C93.2898 214.91 92.8365 214.91 92.5344 214.765L138.992 148.757C140.881 145.786 144.809 144.699 148.133 146.076L192.098 159.625Z" fill="#3399FF"/>
<path d="M192.098 159.625C191.795 160.133 191.418 160.567 190.964 160.785L190.889 160.857L93.8186 214.62C93.2898 214.91 92.8365 214.91 92.5344 214.765L93.8186 212.809L189.227 159.988L189.303 159.915C189.68 159.625 190.058 159.263 190.285 158.901L192.098 159.625Z" fill="#3399FF"/>
<path opacity="0.15" d="M86.34 130.353L87.8509 131.222C87.6242 131.947 87.4732 132.599 87.4732 133.179C87.4732 135.135 87.4732 137.816 87.4732 137.816L85.9623 136.946C85.9623 136.946 85.9623 134.338 85.9623 132.309C85.9623 131.729 86.1134 131.005 86.34 130.353Z" fill="black"/>
<path d="M94.423 139.917L92.9122 140.787L91.3258 139.917L87.4732 137.743L88.984 136.946L94.423 139.917Z" fill="#3399FF"/>
<path opacity="0.1" d="M94.4985 139.917L88.984 136.946L87.4732 137.816L91.3258 139.917L92.9122 140.787C92.9877 140.714 93.1388 140.714 93.2143 140.714C93.441 140.642 93.7431 140.642 94.0453 140.714L97.1425 141.801L132.722 154.336L133.251 153.539L94.4985 139.917Z" fill="black"/>
<path d="M153.345 289.541C141.334 282.875 133.931 270.558 133.931 257.298V161.292C133.931 156.22 132.873 151.22 130.833 146.511C130.229 145.061 129.474 143.612 128.643 142.236C125.168 136.439 120.182 131.657 114.139 128.324C112.024 127.165 109.758 126.585 107.416 126.585C106.585 126.585 105.754 126.657 104.998 126.802L111.344 123.252L147.301 103.326L182.73 83.5453L182.806 83.4728C184.77 82.3859 186.961 81.8063 189.151 81.8063C191.342 81.8063 193.533 82.3859 195.497 83.4728C201.389 86.7334 206.299 91.4431 209.698 97.0948C213.098 102.746 214.911 109.195 214.911 115.716V211.65C214.911 225.199 222.465 237.807 234.703 244.545L250.491 253.313L169.435 298.309L153.345 289.541Z" fill="white"/>
<path d="M189.227 81.6613V82.3859C191.418 82.3859 193.457 82.8931 195.346 83.98C201.162 87.2406 206.073 91.8778 209.396 97.457C212.796 103.036 214.533 109.412 214.533 115.934V211.867C214.533 225.489 222.163 238.242 234.552 245.053L249.735 253.458L169.435 298.019L153.571 289.252C141.711 282.658 134.308 270.413 134.308 257.298V161.292C134.308 156.147 133.251 151.148 131.136 146.366C130.531 144.917 129.776 143.467 128.945 142.091C125.47 136.294 120.409 131.44 114.29 128.034C112.175 126.875 109.833 126.223 107.416 126.223C107.189 126.223 106.963 126.223 106.736 126.223L111.495 123.542L147.453 103.616L182.957 83.8351L183.032 83.7626C184.921 82.7482 187.036 82.1685 189.227 82.1685V81.6613ZM189.227 81.6613C186.885 81.6613 184.619 82.241 182.655 83.3279L182.579 83.4003L147.15 103.181L111.193 123.034L101.448 128.396C103.261 127.527 105.301 127.02 107.416 127.02C109.606 127.02 111.797 127.527 113.912 128.759C119.956 132.092 124.866 136.874 128.265 142.525C129.096 143.902 129.776 145.279 130.456 146.728C132.495 151.293 133.553 156.22 133.553 161.364V257.298C133.553 270.775 141.032 283.165 153.194 289.904L169.511 298.961L251.322 253.53L235.005 244.473C222.843 237.734 215.364 225.344 215.364 211.867V115.934C215.364 109.195 213.476 102.746 210.076 97.0947C206.677 91.4431 201.767 86.6609 195.723 83.3279C193.608 82.1685 191.418 81.6613 189.227 81.6613Z" fill="#F5F5F5"/>
<path d="M169.737 298.816L153.42 289.759C141.258 283.02 133.78 270.63 133.78 257.153V161.219C133.78 156.872 133.024 152.669 131.513 148.684L126.905 147.597C126.981 147.815 127.056 147.96 127.132 148.177C128.945 152.307 129.851 156.727 129.851 161.219V257.153C129.851 271.862 138.085 285.629 151.381 292.947L167.773 302.004L169.662 303.018L169.737 298.816Z" fill="#F0F0F0"/>
<path d="M154.403 134.845L189.68 115.354C190.209 115.064 190.511 114.34 190.209 113.832C189.756 112.746 189.227 111.659 188.623 110.572C188.094 109.702 187.565 108.76 187.036 107.891C186.734 107.384 185.979 107.239 185.45 107.529L150.172 127.02C149.643 127.309 149.417 127.889 149.719 128.324C149.87 128.541 150.021 128.831 150.248 129.048C151.079 130.353 151.834 131.657 152.514 133.034C152.741 133.468 152.892 133.903 153.118 134.338C153.194 134.917 153.874 135.135 154.403 134.845Z" fill="#3399FF"/>
<path d="M131.362 130.57L196.403 94.5588C196.932 94.269 197.008 93.6893 196.63 93.2546C196.403 93.0372 196.177 92.8198 195.95 92.6024C195.497 92.1677 194.666 92.0952 194.137 92.3851L129.096 128.396C128.567 128.686 128.492 129.266 128.945 129.701C129.172 129.918 129.398 130.135 129.625 130.353C130.003 130.787 130.834 130.86 131.362 130.57Z" fill="#E0E0E0"/>
<path d="M124.639 126.368C124.262 126.078 123.808 125.788 123.355 125.57C122.675 125.136 122.071 124.773 121.391 124.411C121.089 124.266 120.787 124.121 120.485 123.976C119.956 123.759 119.956 123.324 120.485 123.034L185.526 87.0232C186.054 86.7334 186.583 86.516 186.659 86.516C186.734 86.516 186.734 86.516 186.81 86.5884C187.414 86.8058 188.094 87.0957 188.698 87.4579C189.68 88.0376 190.738 88.6173 191.644 89.2694C192.173 89.6317 192.098 90.1389 191.569 90.4287L126.528 126.44C125.999 126.73 125.168 126.73 124.639 126.368Z" fill="#3399FF"/>
<path opacity="0.4" d="M124.639 126.368C124.262 126.078 123.808 125.788 123.355 125.57C122.675 125.136 122.071 124.773 121.391 124.411C121.089 124.266 120.787 124.121 120.485 123.976C119.956 123.759 119.956 123.324 120.485 123.034L185.526 87.0232C186.054 86.7334 186.583 86.516 186.659 86.516C186.734 86.516 186.734 86.516 186.81 86.5884C187.414 86.8058 188.094 87.0957 188.698 87.4579C189.68 88.0376 190.738 88.6173 191.644 89.2694C192.173 89.6317 192.098 90.1389 191.569 90.4287L126.528 126.44C125.999 126.73 125.168 126.73 124.639 126.368Z" fill="black"/>
<path d="M185.828 160.495V133.686C185.828 132.816 185.752 130.57 185.677 129.701C185.601 128.396 185.375 127.092 185.148 125.788C185.072 125.208 184.468 124.991 183.939 125.281L141.334 148.902C140.805 149.192 140.428 149.916 140.579 150.496C140.956 152.525 141.183 154.626 141.183 156.727C141.183 156.872 141.183 160.495 141.183 160.64V185.275C141.183 185.855 141.636 186.145 142.165 185.855L184.846 162.234C185.375 161.872 185.828 161.147 185.828 160.495Z" fill="#3399FF"/>
<path opacity="0.8" d="M185.828 160.495V133.686C185.828 132.816 185.752 130.57 185.677 129.701C185.601 128.396 185.375 127.092 185.148 125.788C185.072 125.208 184.468 124.991 183.939 125.281L141.334 148.902C140.805 149.192 140.428 149.916 140.579 150.496C140.956 152.525 141.183 154.626 141.183 156.727C141.183 156.872 141.183 160.495 141.183 160.64V185.275C141.183 185.855 141.636 186.145 142.165 185.855L184.846 162.234C185.375 161.872 185.828 161.147 185.828 160.495Z" fill="white"/>
<path d="M172.759 146.003L165.356 160.35L168.076 163.755L152.892 151.293L141.183 178.899V185.275C141.183 185.855 141.636 186.145 142.165 185.855L184.846 162.234C185.375 161.944 185.828 161.219 185.828 160.567V156.365L172.759 146.003Z" fill="#3399FF"/>
<path d="M157.047 184.333L192.249 164.842C192.778 164.553 193.231 164.77 193.231 165.422V170.059C193.231 170.639 192.778 171.364 192.249 171.726L157.047 191.144C156.518 191.434 156.065 191.217 156.065 190.565V185.927C156.065 185.348 156.518 184.623 157.047 184.333Z" fill="#3399FF"/>
<path d="M149.568 198.68L199.652 170.929C200.181 170.639 200.634 170.856 200.634 171.508V172.74C200.634 173.32 200.181 174.044 199.652 174.407L149.568 202.013C149.039 202.303 148.586 202.085 148.586 201.433V200.201C148.586 199.694 149.039 198.97 149.568 198.68Z" fill="#E0E0E0"/>
<path d="M146.168 207.375L202.522 176.146C203.051 175.856 203.504 176.073 203.504 176.725V177.957C203.504 178.537 203.051 179.261 202.522 179.624L146.168 210.853C145.64 211.143 145.186 210.925 145.186 210.273V209.041C145.186 208.389 145.564 207.665 146.168 207.375Z" fill="#E0E0E0"/>
<path d="M142.165 219.765L159.54 210.128C160.068 209.838 160.522 210.056 160.522 210.708V228.895C160.522 229.474 160.068 230.199 159.54 230.561L142.165 240.198C141.636 240.488 141.183 240.27 141.183 239.618V221.431C141.183 220.779 141.636 220.055 142.165 219.765Z" fill="#3399FF"/>
<path opacity="0.5" d="M142.165 219.765L159.54 210.128C160.068 209.838 160.522 210.056 160.522 210.708V228.895C160.522 229.474 160.068 230.199 159.54 230.561L142.165 240.198C141.636 240.488 141.183 240.27 141.183 239.618V221.431C141.183 220.779 141.636 220.055 142.165 219.765Z" fill="white"/>
<path d="M165.961 206.578L183.335 196.941C183.864 196.651 184.317 196.868 184.317 197.521V215.707C184.317 216.287 183.864 217.012 183.335 217.374L165.961 227.011C165.432 227.3 164.979 227.083 164.979 226.431V208.244C164.979 207.592 165.432 206.868 165.961 206.578Z" fill="#3399FF"/>
<path d="M189.756 193.391L207.13 183.754C207.659 183.464 208.113 183.681 208.113 184.333V202.52C208.113 203.1 207.659 203.824 207.13 204.187L189.756 213.824C189.227 214.113 188.774 213.896 188.774 213.244V195.057C188.774 194.405 189.227 193.68 189.756 193.391Z" fill="#3399FF"/>
<path opacity="0.3" d="M189.756 193.391L207.13 183.754C207.659 183.464 208.113 183.681 208.113 184.333V202.52C208.113 203.1 207.659 203.824 207.13 204.187L189.756 213.824C189.227 214.113 188.774 213.896 188.774 213.244V195.057C188.774 194.405 189.227 193.68 189.756 193.391Z" fill="black"/>
<path d="M204.486 215.852L146.924 247.733C146.395 248.023 145.942 247.806 145.942 247.154V245.922C145.942 245.342 146.395 244.618 146.924 244.255L204.486 212.374C205.015 212.084 205.468 212.302 205.468 212.954V214.186C205.468 214.838 205.091 215.562 204.486 215.852Z" fill="#E0E0E0"/>
<path d="M147.302 254.327L204.864 222.446C205.393 222.156 205.77 221.431 205.695 220.852C205.695 220.49 205.619 220.127 205.619 219.765C205.544 219.185 205.091 218.895 204.562 219.258L147.075 251.139C146.546 251.429 146.093 252.153 146.168 252.733C146.168 253.095 146.244 253.458 146.244 253.82C146.244 254.4 146.697 254.617 147.302 254.327Z" fill="#E0E0E0"/>
<path d="M178.953 243.531L143.751 263.094C143.223 263.384 142.92 264.109 143.071 264.688C145.791 272.659 151.154 279.615 158.557 284.324C159.086 284.687 159.917 284.687 160.521 284.397L195.799 264.906C196.328 264.616 196.328 264.109 195.799 263.747C188.396 259.037 182.957 252.081 180.238 244.111C180.087 243.459 179.558 243.241 178.953 243.531Z" fill="#3399FF"/>
<path opacity="0.8" d="M178.953 243.531L143.751 263.094C143.223 263.384 142.92 264.109 143.071 264.688C145.791 272.659 151.154 279.615 158.557 284.324C159.086 284.687 159.917 284.687 160.521 284.397L195.799 264.906C196.328 264.616 196.328 264.109 195.799 263.747C188.396 259.037 182.957 252.081 180.238 244.111C180.087 243.459 179.558 243.241 178.953 243.531Z" fill="white"/>
<path opacity="0.8" d="M195.875 263.674C193.609 262.225 191.493 260.486 189.605 258.675C183.713 258.24 174.346 256.356 174.346 256.356L171.626 265.268L177.896 267.369C172.533 267.804 156.065 263.964 156.065 263.964C154.856 269.326 154.931 278.6 155.007 281.644C156.14 282.585 157.349 283.455 158.633 284.252C159.162 284.614 159.993 284.614 160.597 284.324L195.875 264.833C196.328 264.544 196.328 264.036 195.875 263.674Z" fill="#3399FF"/>
<path opacity="0.8" d="M174.874 252.371C175.479 253.458 177.216 253.892 178.349 253.24C179.482 252.588 179.785 251.139 179.18 250.052C178.576 248.965 176.99 248.386 175.856 249.038C174.723 249.69 174.27 251.284 174.874 252.371Z" fill="#3399FF"/>
<path d="M193.684 249.038L214.08 237.734C214.609 237.445 214.76 236.792 214.458 236.285C213.778 235.271 213.098 234.184 212.494 233.097C212.192 232.59 211.587 232.373 210.983 232.662L190.587 243.966C190.058 244.256 189.831 244.98 190.134 245.487C190.738 246.574 191.342 247.661 192.098 248.675C192.4 249.183 193.155 249.328 193.684 249.038Z" fill="#3399FF"/>
<path d="M193.835 255.704L221.634 240.27C222.163 239.981 222.239 239.401 221.861 238.894C221.634 238.676 221.483 238.459 221.257 238.242C220.879 237.807 220.124 237.662 219.519 237.952L191.796 253.458C191.267 253.747 191.116 254.4 191.569 254.834C191.72 255.052 191.947 255.269 192.173 255.486C192.551 255.921 193.306 255.994 193.835 255.704Z" fill="#E0E0E0"/>
<path d="M196.026 259.109C196.253 259.327 196.555 259.544 196.781 259.689C197.235 260.051 198.141 260.124 198.67 259.834L226.469 244.473C226.998 244.183 227.073 243.603 226.545 243.241C226.243 243.024 226.016 242.806 225.789 242.589C225.336 242.227 224.505 242.154 223.976 242.444L196.177 257.805C195.648 258.095 195.573 258.675 196.026 259.109Z" fill="#E0E0E0"/>
<path d="M181.522 279.542L216.8 259.979C217.329 259.689 218.235 259.689 218.764 259.979L219.897 260.558C220.426 260.848 220.426 261.355 219.897 261.645L184.619 281.209C184.09 281.499 183.184 281.499 182.655 281.209L181.522 280.629C180.993 280.267 180.993 279.832 181.522 279.542Z" fill="#E0E0E0"/>
<path d="M175.234 142.091L210.437 122.6C210.965 122.31 211.419 122.527 211.419 123.107V127.744C211.419 128.324 210.965 129.048 210.437 129.411L175.234 148.902C174.706 149.192 174.252 148.974 174.252 148.322V143.685C174.252 143.178 174.706 142.453 175.234 142.091Z" fill="#FAFAFA"/>
<path d="M174.781 149.409C174.63 149.409 174.479 149.336 174.328 149.264C174.026 149.119 173.875 148.757 173.875 148.322V143.685C173.875 142.96 174.403 142.091 175.008 141.728L210.21 122.237C210.588 122.02 210.965 122.02 211.267 122.165C211.57 122.31 211.721 122.672 211.721 123.107V127.744C211.721 128.469 211.192 129.338 210.588 129.701L175.385 149.192C175.159 149.336 175.008 149.409 174.781 149.409ZM175.385 142.453C174.932 142.67 174.63 143.322 174.63 143.757V148.395C174.63 148.539 174.705 148.684 174.705 148.684C174.781 148.684 174.857 148.684 175.008 148.612L210.21 129.121C210.663 128.903 210.965 128.251 210.965 127.817V123.179C210.965 123.034 210.89 122.89 210.89 122.89C210.814 122.89 210.739 122.89 210.588 122.962L175.385 142.453Z" fill="#E0E0E0"/>
<path d="M175.234 152.38L210.437 132.889C210.965 132.599 211.419 132.816 211.419 133.396V138.033C211.419 138.613 210.965 139.337 210.437 139.7L175.234 159.191C174.706 159.48 174.252 159.263 174.252 158.611V153.974C174.252 153.394 174.706 152.669 175.234 152.38Z" fill="#FAFAFA"/>
<path d="M174.781 159.625C174.63 159.625 174.479 159.553 174.328 159.48C174.026 159.335 173.875 158.973 173.875 158.538V153.901C173.875 153.177 174.403 152.307 175.008 151.945L210.21 132.454C210.588 132.236 210.965 132.236 211.267 132.381C211.57 132.526 211.721 132.889 211.721 133.323V137.961C211.721 138.685 211.192 139.555 210.588 139.917L175.385 159.408C175.159 159.553 175.008 159.625 174.781 159.625ZM210.89 133.106C210.814 133.106 210.739 133.106 210.663 133.178L175.461 152.669C175.008 152.887 174.705 153.539 174.705 153.974V158.611C174.705 158.756 174.781 158.901 174.781 158.901C174.857 158.901 174.932 158.901 175.083 158.828L210.285 139.337C210.739 139.12 211.041 138.468 211.041 138.033V133.396C211.041 133.251 210.965 133.106 210.89 133.106Z" fill="#E0E0E0"/>
<path d="M82.2614 279.904L88.909 276.209C88.909 276.209 91.1752 262.37 88.909 250.414C85.7363 233.604 73.6497 228.025 69.2683 229.836C64.9625 231.575 64.056 236.647 72.1389 246.212C76.9735 251.863 82.0348 264.254 82.2614 279.904Z" fill="#3399FF"/>
<g opacity="0.2">
<path opacity="0.2" d="M82.2614 279.904L88.909 276.209C88.909 276.209 91.1752 262.37 88.909 250.414C85.7363 233.604 73.6497 228.025 69.2683 229.836C64.9625 231.575 64.056 236.647 72.1389 246.212C76.9735 251.863 82.0348 264.254 82.2614 279.904Z" fill="black"/>
</g>
<path d="M85.2832 272.804C84.9811 272.804 84.83 272.586 84.9055 272.369C86.7941 256.501 79.7687 239.401 72.1391 232.59C71.988 232.445 71.988 232.228 72.1391 232.083C72.2902 231.938 72.5168 231.938 72.6679 232.083C80.4486 239.039 87.5495 256.428 85.6609 272.514C85.6609 272.659 85.5099 272.804 85.2832 272.804Z" fill="white"/>
<path d="M67.6063 288.092C66.7753 288.599 64.8868 287.73 64.2069 287.295C62.9983 286.571 62.0163 285.484 61.3364 284.324C60.581 282.948 60.3544 281.426 60.5054 279.832C60.581 279.035 60.8076 278.238 61.0342 277.441C61.2608 276.644 61.4875 275.919 61.6386 275.122C61.8652 274.325 62.0918 273.528 61.9407 272.804C61.7141 271.21 60.2033 270.123 58.8435 269.253C57.3327 268.239 55.7463 266.862 55.7463 264.978C55.7463 263.529 56.5017 262.152 57.4082 260.921C58.3147 259.761 59.4479 258.674 60.2788 257.443C60.8831 256.573 61.3364 255.486 61.1853 254.472C61.1098 253.82 60.8076 253.24 60.5054 252.661C59.75 251.429 58.8435 250.342 58.3147 248.965C57.786 247.661 57.8615 245.994 58.9191 244.98C59.8256 244.183 61.1098 244.038 62.3184 244.111C64.4336 244.183 66.4732 245.632 68.1351 246.719C69.797 247.806 71.0812 249.328 73.0453 249.98C75.5381 250.849 78.8619 250.342 80.5238 252.805C81.9591 254.907 80.9015 257.298 80.7505 259.544C80.5238 263.167 84.0743 264.544 85.8117 267.152C86.4161 268.021 86.5671 269.036 86.4916 270.05C86.416 271.789 86.1139 273.021 85.3585 274.977C84.6786 276.571 82.5635 279.832 82.5635 279.832C82.4879 279.904 67.7574 288.02 67.6063 288.092Z" fill="#3399FF"/>
<path d="M76.3693 283.455C76.1427 283.455 75.9916 283.31 75.9916 283.093C76.2938 268.166 68.513 251.791 63.0741 247.081C62.923 246.936 62.923 246.719 63.0741 246.574C63.2251 246.429 63.4518 246.429 63.6029 246.574C69.1929 251.356 77.0492 267.949 76.747 283.093C76.747 283.31 76.5959 283.455 76.3693 283.455Z" fill="white"/>
<path d="M73.6495 265.848C73.574 265.848 73.574 265.848 73.4984 265.848C68.4372 264.471 62.2428 264.326 62.1673 264.326C61.9406 264.326 61.7896 264.181 61.7896 263.964C61.7896 263.747 61.9406 263.602 62.1673 263.602C62.2428 263.602 68.5883 263.747 73.7251 265.123C73.9517 265.196 74.0272 265.413 74.0272 265.558C73.9517 265.703 73.8006 265.848 73.6495 265.848Z" fill="white"/>
<g style="mix-blend-mode:overlay">
<path d="M156.049 235.725C161.982 232.717 164.173 225.59 160.941 219.805C157.71 214.02 150.281 211.769 144.348 214.776C138.414 217.784 136.224 224.912 139.455 230.697C142.686 236.482 150.116 238.733 156.049 235.725Z" fill="#757575"/>
<path fill-rule="evenodd" clip-rule="evenodd" d="M145.657 225.811C146.519 225.374 146.667 225.299 146.667 225.299L146.247 224.548L145.111 225.124C144.564 225.401 144.158 225.911 143.974 226.5C143.805 227.053 143.845 227.681 144.164 228.252C144.522 228.893 145.063 229.295 145.66 229.477C146.304 229.67 147.015 229.602 147.634 229.288L149.511 228.337C149.628 228.278 149.681 228.229 149.688 228.18C149.697 228.124 149.665 228.045 149.606 227.94L147.478 224.133C147.373 223.944 147.346 223.771 147.377 223.632C147.4 223.518 147.463 223.425 147.543 223.351C147.62 223.283 147.717 223.24 147.824 223.225C147.976 223.198 148.149 223.229 148.296 223.318L153.218 226.301C153.295 226.346 153.367 226.361 153.423 226.349C153.455 226.344 153.478 226.333 153.498 226.317C153.513 226.303 153.522 226.288 153.53 226.272C153.538 226.245 153.528 226.206 153.503 226.162L151.287 222.197C151.192 222.025 151.172 221.866 151.21 221.729C151.24 221.617 151.301 221.519 151.383 221.45C151.465 221.38 151.566 221.334 151.671 221.315C151.827 221.286 151.998 221.313 152.152 221.403L157.02 224.352C157.106 224.404 157.192 224.422 157.255 224.413C157.287 224.408 157.319 224.392 157.343 224.374C157.363 224.358 157.374 224.336 157.384 224.313C157.392 224.276 157.385 224.223 157.353 224.166L154.441 218.953L153.66 219.349L155.397 222.458C155.397 222.458 154.387 221.837 152.726 220.842C151.09 219.885 149.83 221.279 150.492 222.464L151.572 224.396C151.572 224.396 150.589 223.762 148.932 222.765C147.292 221.81 146.005 223.217 146.667 224.403L148.454 227.6C148.517 227.714 148.5 227.869 148.361 227.939L147.324 228.465C145.077 229.598 143.779 226.791 145.657 225.811Z" fill="white"/>
<path fill-rule="evenodd" clip-rule="evenodd" d="M154.804 218.763L157.718 223.974C157.803 224.128 157.818 224.278 157.789 224.411C157.761 224.516 157.703 224.607 157.621 224.677C157.543 224.744 157.442 224.79 157.33 224.807C157.171 224.831 156.987 224.8 156.804 224.69L151.933 221.738C151.879 221.703 151.817 221.695 151.758 221.703C151.722 221.71 151.686 221.728 151.661 221.746C151.637 221.764 151.622 221.789 151.612 221.822C151.602 221.866 151.609 221.93 151.651 222.005L153.867 225.969C153.946 226.11 153.96 226.249 153.93 226.371C153.907 226.473 153.851 226.558 153.771 226.621C153.695 226.682 153.603 226.723 153.498 226.742C153.346 226.768 153.173 226.738 153 226.634L148.078 223.651C148.019 223.619 147.955 223.607 147.902 223.616C147.871 223.621 147.844 223.635 147.824 223.65C147.808 223.664 147.793 223.688 147.789 223.713C147.778 223.764 147.792 223.841 147.846 223.938L149.974 227.744C150.077 227.928 150.129 228.094 150.099 228.255C150.066 228.424 149.946 228.569 149.708 228.69L147.831 229.64C147.117 230.002 146.29 230.077 145.542 229.853C144.843 229.644 144.205 229.173 143.791 228.431C143.413 227.755 143.371 227.021 143.566 226.37C143.773 225.679 144.256 225.08 144.902 224.752L146.038 224.177L145.604 223.4L144.715 223.85C142.407 225.019 142.136 227.325 143.097 228.962C143.985 230.468 146.083 231.489 148.341 230.346L150.258 229.375C151.053 228.972 151.302 228.243 150.826 227.392L149.866 225.675C149.866 225.675 151.849 226.873 152.634 227.309C153.881 228.086 155.458 226.961 154.688 225.582L153.664 223.751C153.664 223.751 155.674 224.936 156.433 225.385C157.723 226.157 159.283 225.023 158.486 223.658L155.54 218.39L154.804 218.763Z" fill="white"/>
</g>
<g style="mix-blend-mode:soft-light">
<path d="M203.72 208.028C208.918 205.393 210.837 199.149 208.006 194.081C205.176 189.013 198.667 187.041 193.469 189.676C188.272 192.311 186.353 198.555 189.183 203.623C192.014 208.691 198.522 210.663 203.72 208.028Z" fill="#757575"/>
<path d="M201.318 199.345C201.346 199.395 201.374 199.446 201.402 199.496C201.533 199.73 201.663 199.971 201.798 200.204C201.845 200.289 201.823 200.33 201.74 200.372C200.917 200.789 200.099 201.204 199.276 201.621C199.194 201.663 199.143 201.654 199.096 201.569C198.941 201.282 198.781 200.997 198.618 200.714C198.569 200.626 198.587 200.577 198.676 200.537C198.772 200.493 198.869 200.439 198.965 200.395C199.038 200.363 199.059 200.318 199.018 200.245C198.826 199.902 198.641 199.561 198.442 199.223C198.283 198.957 198.038 198.879 197.745 198.978C197.23 199.15 197.041 199.626 197.302 200.102C197.442 200.362 197.59 200.618 197.732 200.882C197.777 200.963 197.824 200.983 197.909 200.935C198.001 200.884 198.104 200.842 198.194 200.786C198.286 200.734 198.337 200.743 198.39 200.839C198.544 201.123 198.701 201.404 198.861 201.683C198.911 201.771 198.894 201.814 198.804 201.86C197.999 202.263 197.202 202.672 196.399 203.079C196.147 203.207 196.186 203.222 196.048 202.975C195.913 202.733 195.779 202.484 195.636 202.246C195.576 202.148 195.59 202.091 195.699 202.051C195.79 202.015 195.876 201.961 195.965 201.921C196.042 201.887 196.052 201.842 196.007 201.771C195.741 201.303 195.482 200.832 195.222 200.366C195.184 200.296 195.141 200.284 195.076 200.321C194.98 200.375 194.875 200.423 194.779 200.477C194.707 200.519 194.66 200.498 194.621 200.429C194.455 200.132 194.294 199.834 194.124 199.539C194.083 199.466 194.106 199.425 194.177 199.389C194.83 199.058 195.482 198.732 196.133 198.397C196.227 198.35 196.272 198.376 196.316 198.463C196.4 198.632 196.497 198.796 196.585 198.963C196.598 198.987 196.619 199.006 196.644 199.042C196.663 199.003 196.68 198.98 196.685 198.952C196.798 198.376 197.145 197.968 197.648 197.674C197.934 197.509 198.242 197.382 198.579 197.335C199.192 197.247 199.674 197.477 199.987 198.02C200.242 198.458 200.485 198.903 200.725 199.35C200.783 199.454 200.832 199.469 200.926 199.411C201.012 199.357 201.107 199.319 201.217 199.263C201.177 199.219 201.152 199.193 201.127 199.166C200.657 198.722 200.39 198.19 200.398 197.554C200.407 197.08 200.594 196.665 200.903 196.315C201.523 195.616 202.29 195.163 203.263 195.079C203.953 195.021 204.507 195.298 204.934 195.828C204.997 195.905 204.995 195.955 204.905 196.011C204.505 196.263 204.114 196.52 203.718 196.78C203.634 196.837 203.582 196.825 203.53 196.742C203.486 196.671 203.431 196.6 203.374 196.535C203.074 196.188 202.688 196.166 202.347 196.467C202.155 196.639 202.107 196.851 202.17 197.091C202.288 197.51 202.499 197.887 202.796 198.221C203.039 198.493 203.365 198.535 203.705 198.348C204.029 198.169 204.139 197.895 204.018 197.562C203.994 197.49 204.008 197.453 204.075 197.419C204.504 197.202 204.935 196.988 205.362 196.767C205.472 196.711 205.501 196.771 205.528 196.856C205.739 197.549 205.589 198.149 205.072 198.653C204.701 199.019 204.271 199.306 203.765 199.468C203.127 199.673 202.476 199.791 201.805 199.558C201.643 199.502 201.489 199.417 201.332 199.343C201.336 199.332 201.326 199.341 201.318 199.345Z" fill="white"/>
<path d="M191.424 199.251C191.959 198.98 192.498 198.707 193.031 198.432C193.133 198.38 193.187 198.387 193.243 198.496C193.414 198.821 193.594 199.142 193.779 199.455C193.844 199.564 193.825 199.618 193.711 199.666C193.574 199.725 193.447 199.804 193.31 199.864C193.218 199.905 193.218 199.95 193.263 200.03C193.718 200.844 194.174 201.661 194.629 202.475C194.674 202.555 194.718 202.562 194.796 202.522C194.939 202.445 195.085 202.376 195.228 202.299C195.304 202.255 195.352 202.27 195.395 202.346C195.553 202.639 195.716 202.929 195.882 203.217C195.927 203.298 195.904 203.338 195.824 203.374C194.734 203.926 193.642 204.475 192.558 205.029C192.475 205.071 192.437 205.056 192.394 204.979C192.236 204.687 192.07 204.399 191.908 204.108C191.869 204.04 191.875 203.997 191.95 203.96C192.096 203.89 192.239 203.813 192.386 203.744C192.47 203.706 192.488 203.658 192.441 203.574C191.984 202.766 191.53 201.952 191.081 201.14C191.027 201.045 190.977 201.036 190.886 201.087C190.753 201.164 190.61 201.222 190.478 201.299C190.402 201.342 190.355 201.331 190.313 201.255C190.126 200.913 189.939 200.577 189.745 200.239C189.696 200.151 189.704 200.113 189.798 200.065C190.347 199.801 190.884 199.524 191.424 199.251Z" fill="white"/>
<path d="M207.144 196.902C207.317 197.212 207.186 197.686 206.868 197.847C206.61 197.978 206.113 197.934 205.893 197.55C205.701 197.215 205.825 196.799 206.171 196.618C206.512 196.446 206.962 196.576 207.144 196.902Z" fill="white"/>
</g>
<g style="mix-blend-mode:overlay">
<path d="M116.947 177.518C125.269 173.299 128.341 163.301 123.809 155.187C119.277 147.073 108.857 143.915 100.534 148.134C92.2122 152.353 89.1398 162.351 93.6719 170.465C98.204 178.579 108.624 181.736 116.947 177.518Z" fill="#757575"/>
</g>
<g style="mix-blend-mode:soft-light">
<path d="M180.001 221.318C185.291 218.637 187.245 212.281 184.364 207.123C181.483 201.965 174.858 199.958 169.568 202.64C164.278 205.322 162.324 211.677 165.205 216.835C168.087 221.993 174.711 224 180.001 221.318Z" fill="#757575"/>
<path fill-rule="evenodd" clip-rule="evenodd" d="M173.127 215.747C173.245 215.687 173.828 215.411 173.938 215.371L173.868 215.247C173.73 215.317 173.485 215.406 173.397 215.431L171.019 211.167C171.085 211.113 171.304 210.967 171.442 210.897L171.373 210.773C171.274 210.833 170.709 211.14 170.59 211.2C170.471 211.261 169.889 211.536 169.781 211.581L169.851 211.705C169.989 211.635 170.232 211.541 170.322 211.52L172.7 215.785C172.634 215.838 172.415 215.984 172.277 216.054L172.346 216.178C172.443 216.114 173.008 215.808 173.127 215.747Z" fill="white"/>
<path fill-rule="evenodd" clip-rule="evenodd" d="M168.007 212.84C168.107 212.789 169.222 212.224 169.601 212.033C169.676 212.14 169.947 212.616 169.947 212.616L170.015 212.582L169.523 211.702C169.424 211.763 167.628 212.692 167.509 212.753C167.389 212.813 165.576 213.712 165.469 213.756L165.96 214.636L166.028 214.602C166.028 214.602 165.763 214.127 165.713 214.002C166.092 213.81 167.207 213.245 167.306 213.195L169.632 217.356C169.565 217.409 169.346 217.556 169.206 217.626L169.276 217.751C169.375 217.691 169.942 217.379 170.061 217.318C170.181 217.258 170.767 216.981 170.877 216.94L170.807 216.815C170.668 216.886 170.422 216.976 170.333 217L168.007 212.84Z" fill="white"/>
<path fill-rule="evenodd" clip-rule="evenodd" d="M174.514 214.88C174.46 214.627 173.213 210.848 172.859 209.976L173.118 209.845C173.489 210.308 176.178 212.34 176.677 212.673C176.655 212.313 176.314 209.082 176.164 208.302L176.416 208.175C176.941 208.894 179.75 212.213 179.75 212.213C179.834 212.19 180.057 212.112 180.197 212.041L180.267 212.166C180.159 212.211 179.569 212.484 179.449 212.545C179.329 212.606 178.759 212.915 178.662 212.979L178.592 212.854C178.732 212.783 178.948 212.639 179.019 212.583C179.019 212.583 177.122 210.28 176.839 209.958C176.881 210.207 177.167 213.741 177.167 213.741L176.943 213.854C176.629 213.613 173.969 211.596 173.844 211.445C173.973 211.925 174.713 214.108 174.919 214.679C174.992 214.663 175.268 214.543 175.38 214.486L175.45 214.611C175.362 214.646 174.975 214.816 174.876 214.867C174.78 214.915 174.273 215.192 174.2 215.244L174.13 215.119C174.236 215.061 174.465 214.929 174.514 214.88Z" fill="white"/>
<path fill-rule="evenodd" clip-rule="evenodd" d="M180.821 211.644C180.754 211.698 180.535 211.844 180.395 211.915L180.465 212.039C180.564 211.979 181.496 211.482 181.62 211.419C181.739 211.359 183.993 210.237 184.103 210.196L183.611 209.317L183.544 209.351C183.544 209.351 183.809 209.826 183.858 209.951C183.48 210.142 181.558 211.116 181.458 211.167L179.201 207.129C179.301 207.079 181.151 206.141 181.526 205.951C181.601 206.058 181.872 206.535 181.872 206.535L181.94 206.5L181.448 205.621C181.349 205.681 179.189 206.796 179.069 206.856C178.95 206.917 177.994 207.381 177.886 207.426L177.956 207.55C178.095 207.48 178.339 207.386 178.429 207.365L180.821 211.644Z" fill="white"/>
<path fill-rule="evenodd" clip-rule="evenodd" d="M180.399 209.267C180.399 209.267 182.209 208.334 182.372 208.267C182.417 208.31 182.609 208.553 182.659 208.624L182.747 208.579C182.714 208.53 182.49 208.147 182.44 208.057C182.387 207.963 182.181 207.576 182.157 207.523L182.069 207.567C182.1 207.642 182.207 207.934 182.219 207.993C182.07 208.084 180.246 208.993 180.246 208.993L180.399 209.267Z" fill="white"/>
</g>
<g style="mix-blend-mode:color-burn">
<path d="M72.6446 225.832C78.5779 222.824 80.7683 215.696 77.5372 209.911C74.306 204.126 66.8768 201.875 60.9435 204.883C55.0102 207.891 52.8198 215.019 56.0509 220.803C59.2821 226.588 66.7113 228.84 72.6446 225.832Z" fill="#757575"/>
<path d="M70.4133 208.698C70.1332 209.121 69.7147 209.501 69.292 209.771C69.6125 209.216 69.701 208.553 69.5616 207.894C69.2613 208.383 68.8918 208.851 68.3839 209.276C67.6674 209.021 66.9146 209.009 66.2438 209.349C64.947 210.006 64.4857 211.643 65.2691 213.043C65.367 213.218 65.4895 213.437 65.6321 213.589C63.6154 214.498 61.3083 214.374 59.3132 213.475C59.2854 213.938 59.4408 214.421 59.7101 214.902C60.1997 215.778 61.0184 216.318 61.8893 216.438C61.4868 216.642 61.0556 216.692 60.6447 216.675L60.6691 216.719C61.3301 217.9 62.6982 218.499 63.9183 218.218C63.7639 218.353 63.5648 218.51 63.3412 218.623C63.2071 218.691 63.0282 218.781 62.8695 218.805C63.7457 219.653 64.987 219.923 66.0156 219.402C65.5779 220.466 64.7696 221.381 63.6964 221.924C63.5175 222.015 63.3386 222.105 63.0905 222.175C64.5108 222.354 66.0078 222.158 67.3494 221.478C71.6872 219.282 71.952 214.32 70.1159 211.038C70.0669 210.951 69.9935 210.82 69.9445 210.732C70.2363 210.023 70.394 209.382 70.4133 208.698Z" fill="white"/>
</g>
<g style="mix-blend-mode:color-burn">
<path d="M72.6446 164.389C66.7135 167.396 59.2809 165.143 56.0509 159.361C52.8209 153.578 55.0124 146.447 60.9435 143.44C66.8746 140.434 74.3072 142.686 77.5372 148.469C80.7672 154.251 78.5757 161.382 72.6446 164.389Z" fill="#757575"/>
<path d="M71.7548 147.067C71.2563 146.545 70.5058 146.314 69.7966 146.466C68.5209 146.737 64.05 149.004 64.05 149.004C64.05 149.004 59.5791 151.27 58.6306 152.127C58.1066 152.6 57.886 153.318 58.0595 154.01C58.3696 155.255 59.6444 157.538 59.6444 157.538C59.6444 157.538 60.9191 159.82 61.8301 160.761C62.3285 161.283 63.079 161.514 63.7882 161.362C65.0685 161.089 69.5349 158.824 69.5349 158.824C69.5349 158.824 74.0058 156.558 74.9543 155.701C75.4783 155.228 75.6989 154.51 75.5253 153.818C75.2153 152.573 73.9405 150.29 73.9405 150.29C73.9405 150.29 72.6657 148.008 71.7548 147.067ZM66.4881 156.728L64.173 152.583L69.066 152.761L66.4881 156.728Z" fill="white"/>
</g>
<path d="M316.313 106.231L253.418 133.056C251.733 133.776 249.829 132.816 249.472 131.083L241.36 90.8802C241.254 90.3262 241.315 89.7705 241.535 89.2696C241.831 88.5574 242.423 87.9714 243.202 87.6906L307.514 63.7373C308.264 63.4534 309.05 63.5067 309.709 63.7849C310.535 64.1377 311.166 64.8701 311.339 65.8216L318.024 103.152C318.253 104.433 317.543 105.712 316.313 106.231Z" fill="#3399FF"/>
<path d="M250.671 132.579L286.748 97.323L251.088 132.832C251.088 132.832 250.778 132.657 250.671 132.579Z" fill="#3399FF"/>
<path d="M318.359 104.213L288.485 97.0766L318.3 104.528C318.3 104.528 318.347 104.309 318.359 104.213Z" fill="#94DD8B"/>
<path opacity="0.6" d="M309.579 63.8029L289.157 100.911L241.192 89.3635C241.488 88.6493 242.083 88.0616 242.864 87.7799L307.377 63.7552C308.13 63.4705 308.918 63.5239 309.579 63.8029Z" fill="#3399FF"/>
<path d="M309.579 63.8055L289.058 98.5607L241.169 89.379C241.466 88.6644 242.06 88.0764 242.842 87.7946L307.377 63.7578C308.129 63.473 308.918 63.5264 309.579 63.8055Z" fill="#94DD8B"/>
<path d="M309.579 63.806L288.918 98.1104L241.165 89.382C241.461 88.6674 242.056 88.0793 242.838 87.7975L307.376 63.7583C308.129 63.4735 308.918 63.5269 309.579 63.806Z" fill="#3399FF"/>
<path d="M311.629 88.6582L302.053 92.7377C301.795 92.8442 301.51 92.7002 301.455 92.4373L300.225 86.3179C300.207 86.2303 300.218 86.1457 300.247 86.0725C300.29 85.9627 300.379 85.8768 300.502 85.8324L310.287 82.1843C310.4 82.139 310.516 82.1511 310.619 82.1903C310.749 82.242 310.842 82.3565 310.863 82.5015L311.885 88.1801C311.927 88.3846 311.814 88.5823 311.629 88.6582Z" fill="#94DD8B"/>
<g style="mix-blend-mode:soft-light">
<path d="M271.067 124.526C280.733 120.901 285.424 110.365 281.545 100.993C277.665 91.6217 266.683 86.9627 257.017 90.5873C247.35 94.212 242.659 104.748 246.539 114.119C250.419 123.491 261.4 128.15 271.067 124.526Z" fill="#757575"/>
<path fill-rule="evenodd" clip-rule="evenodd" d="M256.665 105.261C256.881 105.114 257.125 105.015 257.379 104.961C257.662 104.896 257.959 104.883 258.253 104.945C258.338 105.15 258.423 105.355 258.509 105.56C258.319 105.508 258.129 105.473 257.94 105.462C257.684 105.452 257.43 105.506 257.196 105.609C257.083 105.66 256.986 105.729 256.907 105.823C256.857 105.883 256.819 105.954 256.809 106.032C256.801 106.133 256.832 106.227 256.885 106.314C256.932 106.386 257.008 106.448 257.093 106.473C257.21 106.511 257.329 106.515 257.445 106.513C257.688 106.512 257.935 106.501 258.178 106.5C258.386 106.496 258.603 106.513 258.804 106.593C258.992 106.662 259.161 106.786 259.271 106.949C259.391 107.117 259.47 107.308 259.493 107.504C259.517 107.683 259.477 107.869 259.393 108.031C259.305 108.203 259.163 108.346 259.002 108.463C258.782 108.619 258.531 108.721 258.272 108.785C257.946 108.866 257.598 108.898 257.263 108.819C257.175 108.607 257.09 108.402 257.002 108.19C257.417 108.321 257.873 108.33 258.283 108.185C258.457 108.12 258.625 108.04 258.746 107.906C258.815 107.831 258.858 107.733 258.856 107.627C258.859 107.512 258.804 107.402 258.734 107.313C258.657 107.228 258.545 107.18 258.43 107.166C258.232 107.134 258.037 107.149 257.836 107.151C257.594 107.152 257.36 107.174 257.117 107.134C256.939 107.111 256.754 107.049 256.608 106.94C256.406 106.795 256.275 106.583 256.206 106.355C256.143 106.142 256.162 105.906 256.256 105.708C256.348 105.526 256.497 105.381 256.665 105.261Z" fill="white"/>
<path fill-rule="evenodd" clip-rule="evenodd" d="M271.153 99.9524C271.335 99.7046 271.609 99.5367 271.903 99.4352C272.265 99.2995 272.667 99.2557 273.054 99.3397C273.139 99.5448 273.224 99.7498 273.309 99.9549C273.138 99.9047 272.964 99.8715 272.786 99.8648C272.477 99.8494 272.169 99.9155 271.904 100.064C271.763 100.149 271.63 100.272 271.613 100.434C271.595 100.612 271.709 100.806 271.887 100.871C272.027 100.925 272.182 100.915 272.323 100.912C272.566 100.911 272.806 100.903 273.049 100.902C273.267 100.902 273.489 100.933 273.686 101.023C273.87 101.101 274.023 101.248 274.118 101.417C274.227 101.597 274.305 101.805 274.301 102.018C274.3 102.198 274.24 102.376 274.136 102.529C274.016 102.705 273.847 102.842 273.665 102.951C273.407 103.096 273.111 103.191 272.819 103.234C272.573 103.269 272.316 103.275 272.064 103.214C271.976 103.002 271.891 102.797 271.803 102.585C272.129 102.684 272.478 102.717 272.811 102.649C272.957 102.619 273.098 102.574 273.226 102.519C273.361 102.46 273.494 102.377 273.578 102.256C273.649 102.164 273.676 102.048 273.654 101.934C273.626 101.805 273.545 101.672 273.42 101.613C273.312 101.555 273.182 101.546 273.06 101.535C272.864 101.527 272.659 101.538 272.466 101.537C272.275 101.542 272.085 101.548 271.894 101.513C271.724 101.487 271.546 101.423 271.403 101.321C271.26 101.219 271.159 101.077 271.077 100.92C271.011 100.781 270.964 100.628 270.966 100.472C270.967 100.292 271.039 100.101 271.153 99.9524Z" fill="white"/>
<path fill-rule="evenodd" clip-rule="evenodd" d="M275.074 98.332C275.225 98.2103 275.392 98.1071 275.576 98.0463C275.943 97.9009 276.356 97.8446 276.757 97.9232C276.775 97.9248 276.781 97.9389 276.787 97.9531C276.869 98.151 276.951 98.349 277.033 98.547C276.844 98.4952 276.643 98.4559 276.45 98.4547C276.204 98.4486 275.95 98.5028 275.731 98.601C275.618 98.6515 275.513 98.7232 275.435 98.8178C275.38 98.8874 275.342 98.9754 275.345 99.064C275.348 99.2342 275.46 99.4213 275.632 99.4715C275.824 99.5303 276.03 99.5022 276.226 99.5105C276.462 99.5122 276.689 99.4928 276.92 99.5044C277.137 99.5214 277.35 99.5721 277.531 99.6842C277.725 99.8078 277.864 100.001 277.949 100.206C278.033 100.387 278.059 100.59 278.014 100.786C277.97 100.982 277.868 101.16 277.723 101.295C277.569 101.451 277.381 101.562 277.181 101.645C276.961 101.743 276.717 101.802 276.479 101.834C276.255 101.86 276.02 101.859 275.806 101.808C275.711 101.599 275.633 101.391 275.544 101.179C275.959 101.309 276.423 101.316 276.832 101.171C277.007 101.106 277.182 101.024 277.307 100.879C277.369 100.807 277.412 100.709 277.413 100.611C277.415 100.495 277.358 100.378 277.288 100.29C277.211 100.204 277.101 100.163 276.994 100.147C276.796 100.114 276.591 100.126 276.39 100.127C276.148 100.128 275.914 100.15 275.671 100.11C275.483 100.083 275.288 100.017 275.139 99.9007C274.977 99.7733 274.862 99.596 274.789 99.4024C274.723 99.2229 274.711 99.0315 274.761 98.8494C274.78 98.6542 274.915 98.4733 275.074 98.332Z" fill="white"/>
<path fill-rule="evenodd" clip-rule="evenodd" d="M262.304 103.063C263.451 103.518 264.592 103.982 265.742 104.444C265.43 103.694 265.118 102.943 264.806 102.193C265.002 102.12 265.198 102.046 265.395 101.973C265.892 103.169 266.389 104.365 266.883 105.554C266.103 105.233 265.333 104.916 264.553 104.594C264.178 104.44 263.803 104.285 263.429 104.131C263.746 104.895 264.061 105.653 264.379 106.417C264.183 106.491 263.986 106.564 263.79 106.637C263.299 105.455 262.802 104.259 262.304 103.063Z" fill="white"/>
<path fill-rule="evenodd" clip-rule="evenodd" d="M247.582 108.704C247.901 108.584 248.214 108.468 248.533 108.348C248.758 108.264 248.973 108.176 249.213 108.127C249.438 108.083 249.671 108.078 249.894 108.15C250.072 108.214 250.228 108.328 250.332 108.477C250.452 108.644 250.534 108.842 250.552 109.048C250.566 109.263 250.495 109.495 250.328 109.639C250.373 109.646 250.412 109.64 250.45 109.65C250.67 109.674 250.88 109.775 251.026 109.925C251.14 110.038 251.226 110.185 251.274 110.339C251.338 110.536 251.352 110.751 251.291 110.946C251.223 111.167 251.057 111.352 250.86 111.483C250.688 111.596 250.502 111.674 250.306 111.747C249.885 111.905 249.464 112.062 249.043 112.219C248.558 111.052 248.07 109.878 247.582 108.704ZM248.392 108.998C248.524 109.316 248.659 109.641 248.792 109.96C249.031 109.87 249.278 109.778 249.518 109.688C249.667 109.624 249.815 109.536 249.898 109.391C249.952 109.28 249.952 109.158 249.912 109.042C249.869 108.919 249.792 108.793 249.674 108.731C249.566 108.673 249.436 108.664 249.319 108.684C249.183 108.702 249.056 108.758 248.932 108.804C248.748 108.865 248.573 108.93 248.392 108.998ZM249 110.462C249.142 110.801 249.286 111.148 249.427 111.488C249.681 111.392 249.942 111.295 250.196 111.2C250.342 111.145 250.485 111.067 250.573 110.936C250.656 110.832 250.682 110.691 250.653 110.563C250.619 110.42 250.546 110.284 250.426 110.198C250.33 110.128 250.206 110.093 250.083 110.098C249.973 110.098 249.869 110.129 249.767 110.167C249.516 110.269 249.252 110.36 249 110.462Z" fill="white"/>
<path fill-rule="evenodd" clip-rule="evenodd" d="M251.533 107.207C251.736 107.131 251.94 107.055 252.143 106.979C252.396 107.588 252.646 108.189 252.899 108.798C252.987 109.01 253.071 109.232 253.207 109.418C253.322 109.572 253.479 109.709 253.669 109.761C253.858 109.813 254.055 109.78 254.236 109.712C254.418 109.644 254.592 109.538 254.69 109.371C254.776 109.233 254.8 109.068 254.795 108.915C254.782 108.723 254.723 108.541 254.645 108.374C254.366 107.702 254.086 107.029 253.807 106.357C254.01 106.281 254.214 106.205 254.417 106.129C254.708 106.829 255 107.53 255.291 108.23C255.419 108.518 255.491 108.834 255.452 109.143C255.423 109.416 255.293 109.669 255.097 109.865C254.878 110.085 254.585 110.228 254.278 110.318C254.069 110.38 253.845 110.406 253.622 110.375C253.462 110.353 253.3 110.307 253.159 110.23C252.986 110.139 252.842 110.013 252.72 109.862C252.583 109.693 252.479 109.503 252.396 109.304C252.112 108.601 251.824 107.908 251.533 107.207Z" fill="white"/>
<path fill-rule="evenodd" clip-rule="evenodd" d="M259.946 104.038C260.148 103.962 260.349 103.886 260.551 103.811C261.035 104.98 261.518 106.149 262.002 107.318C261.803 107.401 261.599 107.469 261.39 107.548C260.913 106.376 260.43 105.207 259.946 104.038Z" fill="white"/>
<path fill-rule="evenodd" clip-rule="evenodd" d="M267.069 101.329C267.794 101.057 268.527 100.783 269.252 100.512C269.326 100.689 269.399 100.866 269.473 101.042C268.943 101.24 268.413 101.438 267.891 101.634C268.009 101.916 268.123 102.192 268.241 102.475C268.712 102.298 269.191 102.119 269.662 101.943C269.736 102.12 269.806 102.289 269.88 102.466C269.408 102.642 268.929 102.821 268.458 102.998C268.608 103.358 268.76 103.726 268.91 104.086C269.44 103.888 269.969 103.69 270.492 103.495C270.565 103.671 270.641 103.855 270.715 104.032C269.989 104.303 269.257 104.577 268.531 104.848C268.135 103.894 267.741 102.947 267.345 101.993C267.254 101.774 267.153 101.551 267.069 101.329Z" fill="white"/>
<path fill-rule="evenodd" clip-rule="evenodd" d="M254.563 112.144C255.699 112.594 256.835 113.045 257.971 113.495C257.665 112.759 257.359 112.023 257.05 111.279C257.247 111.206 257.443 111.133 257.639 111.059C258.127 112.234 258.616 113.409 259.104 114.584C257.965 114.127 256.823 113.662 255.681 113.198C255.993 113.948 256.305 114.699 256.617 115.449C256.421 115.522 256.225 115.596 256.028 115.669C255.54 114.494 255.044 113.322 254.563 112.144Z" fill="white"/>
<path fill-rule="evenodd" clip-rule="evenodd" d="M259.781 110.314C259.97 110.121 260.219 109.995 260.476 109.907C260.823 109.794 261.192 109.754 261.559 109.829C261.644 110.034 261.727 110.232 261.812 110.437C261.623 110.385 261.432 110.35 261.239 110.349C260.986 110.346 260.724 110.403 260.498 110.504C260.387 110.561 260.287 110.623 260.209 110.718C260.154 110.787 260.115 110.875 260.119 110.964C260.131 111.114 260.22 111.269 260.363 111.33C260.475 111.378 260.612 111.384 260.739 111.386C260.989 111.382 261.228 111.374 261.479 111.37C261.679 111.369 261.879 111.384 262.063 111.446C262.248 111.507 262.412 111.618 262.526 111.771C262.64 111.925 262.731 112.103 262.758 112.289C262.792 112.472 262.77 112.661 262.686 112.823C262.601 113.001 262.469 113.149 262.308 113.266C262.11 113.414 261.883 113.515 261.645 113.587C261.4 113.663 261.14 113.703 260.884 113.692C260.772 113.685 260.66 113.678 260.549 113.654C260.464 113.449 260.379 113.244 260.293 113.039C260.708 113.17 261.162 113.172 261.571 113.027C261.746 112.962 261.921 112.88 262.038 112.738C262.105 112.656 262.153 112.548 262.143 112.445C262.131 112.335 262.087 112.229 262.013 112.151C261.935 112.066 261.819 112.028 261.704 112.013C261.509 111.988 261.321 112.001 261.121 112.003C260.903 112.002 260.683 112.019 260.463 111.995C260.268 111.97 260.069 111.914 259.903 111.796C259.736 111.679 259.624 111.508 259.55 111.332C259.48 111.162 259.457 110.966 259.496 110.797C259.553 110.612 259.651 110.444 259.781 110.314Z" fill="white"/>
<path fill-rule="evenodd" clip-rule="evenodd" d="M252.213 113.119C252.415 113.043 252.617 112.967 252.818 112.892C253.293 114.04 253.771 115.195 254.246 116.343C254.044 116.418 253.843 116.494 253.641 116.57C253.163 115.415 252.688 114.267 252.213 113.119Z" fill="white"/>
<path fill-rule="evenodd" clip-rule="evenodd" d="M263.263 108.933C263.464 108.858 263.666 108.782 263.868 108.707C264.343 109.855 264.821 111.01 265.296 112.158C265.094 112.233 264.892 112.309 264.691 112.384C264.213 111.229 263.738 110.081 263.263 108.933Z" fill="white"/>
<path fill-rule="evenodd" clip-rule="evenodd" d="M265.667 108.005C266.139 107.828 266.604 107.654 267.077 107.477C267.443 107.348 267.859 107.299 268.246 107.4C268.574 107.482 268.869 107.666 269.088 107.911C269.273 108.112 269.415 108.354 269.518 108.602C269.665 108.956 269.731 109.356 269.651 109.73C269.59 110.047 269.415 110.333 269.178 110.553C268.988 110.722 268.766 110.854 268.529 110.951C268.057 111.128 267.584 111.304 267.119 111.478C266.626 110.313 266.146 109.159 265.667 108.005ZM266.492 108.293C266.828 109.1 267.163 109.907 267.499 110.714C267.695 110.641 267.884 110.57 268.08 110.497C268.196 110.454 268.323 110.414 268.43 110.35C268.644 110.237 268.83 110.078 268.932 109.859C269.022 109.671 269.05 109.456 269.021 109.245C268.996 109.042 268.931 108.846 268.837 108.66C268.752 108.495 268.645 108.339 268.507 108.211C268.373 108.089 268.208 107.995 268.028 107.948C267.821 107.894 267.601 107.911 267.396 107.963C267.274 107.992 267.154 108.046 267.037 108.089C266.855 108.157 266.674 108.225 266.492 108.293Z" fill="white"/>
<path fill-rule="evenodd" clip-rule="evenodd" d="M270.099 106.332C270.824 106.061 271.55 105.79 272.268 105.521C272.341 105.698 272.412 105.868 272.485 106.044C271.963 106.24 271.433 106.438 270.911 106.633C271.026 106.909 271.143 107.191 271.258 107.467C271.729 107.291 272.193 107.117 272.665 106.941C272.735 107.11 272.806 107.28 272.876 107.45C272.405 107.626 271.933 107.802 271.469 107.976C271.619 108.336 271.766 108.69 271.915 109.05C272.438 108.855 272.967 108.657 273.49 108.462C273.563 108.638 273.636 108.815 273.707 108.985C272.981 109.256 272.256 109.527 271.538 109.796C271.056 108.637 270.577 107.484 270.099 106.332Z" fill="white"/>
<path fill-rule="evenodd" clip-rule="evenodd" d="M274.121 104.803C274.565 104.637 275.008 104.471 275.458 104.303C275.679 104.228 275.919 104.179 276.161 104.195C276.35 104.206 276.539 104.275 276.685 104.384C276.864 104.513 276.993 104.702 277.079 104.907C277.164 105.113 277.216 105.339 277.18 105.556C277.156 105.721 277.07 105.876 276.951 105.994C276.862 106.084 276.765 106.153 276.655 106.211C277.281 106.525 277.907 106.839 278.535 107.16C278.303 107.247 278.07 107.334 277.845 107.418C277.237 107.106 276.625 106.786 276.009 106.477C275.864 106.531 275.726 106.583 275.581 106.637C275.775 107.104 275.972 107.578 276.166 108.046C275.963 108.122 275.759 108.198 275.563 108.271C275.08 107.11 274.601 105.956 274.121 104.803ZM274.936 105.087C275.083 105.441 275.231 105.795 275.378 106.149C275.61 106.062 275.85 105.972 276.083 105.885C276.242 105.825 276.392 105.72 276.471 105.568C276.522 105.467 276.529 105.342 276.502 105.237C276.468 105.095 276.387 104.961 276.267 104.875C276.151 104.796 275.998 104.772 275.859 104.783C275.714 104.796 275.586 104.852 275.455 104.901C275.278 104.959 275.111 105.022 274.936 105.087Z" fill="white"/>
</g>
<g style="mix-blend-mode:soft-light">
<path d="M126.403 199.895C132.337 196.887 134.527 189.759 131.296 183.974C128.065 178.19 120.635 175.938 114.702 178.946C108.769 181.954 106.578 189.082 109.81 194.867C113.041 200.651 120.47 202.903 126.403 199.895Z" fill="#757575"/>
<path fill-rule="evenodd" clip-rule="evenodd" d="M112.911 191.79L115.207 190.629L117.764 195.197L120.106 194.012L117.548 189.444L119.844 188.283L118.561 185.991L111.628 189.498L112.911 191.79Z" fill="white"/>
<path d="M125.774 182.329L121.052 184.722L122.339 187.025L127.061 184.632L125.774 182.329Z" fill="white"/>
<path fill-rule="evenodd" clip-rule="evenodd" d="M119.941 188.181L122.562 192.868L122.633 192.832L124.913 191.677L129.585 189.311L128.302 187.016L123.63 189.383L122.292 186.99L119.941 188.181Z" fill="white"/>
</g>
<path d="M303.592 286.261V281.547L312.399 281.492L312.473 288.608L311.928 288.646C309.498 288.795 299.565 289.015 297.939 288.531C296.118 287.996 303.592 286.261 303.592 286.261Z" fill="#3399FF"/>
<path d="M297.727 288.096C297.727 288.173 301.019 288.239 305.086 288.239C309.147 288.239 312.445 288.173 312.445 288.096C312.445 288.018 309.153 287.952 305.086 287.952C301.024 287.952 297.727 288.013 297.727 288.096Z" fill="#263238"/>
<path d="M303.437 287.22C303.512 287.181 303.448 286.933 303.259 286.691C303.069 286.443 302.84 286.316 302.782 286.372C302.725 286.427 302.845 286.636 303.018 286.862C303.19 287.088 303.362 287.258 303.437 287.22Z" fill="#263238"/>
<path d="M302.874 287.534C302.949 287.506 302.909 287.225 302.736 286.933C302.564 286.636 302.334 286.46 302.271 286.509C302.208 286.559 302.317 286.801 302.478 287.071C302.639 287.346 302.799 287.561 302.874 287.534Z" fill="#263238"/>
<path d="M309.791 288.074C309.825 288.096 309.957 287.974 310.147 287.765C310.336 287.561 310.589 287.269 310.917 287.021C311.244 286.779 311.606 286.652 311.87 286.625C312.14 286.592 312.313 286.63 312.33 286.586C312.347 286.553 312.18 286.438 311.865 286.421C311.554 286.399 311.112 286.515 310.739 286.796C310.365 287.071 310.13 287.407 309.98 287.644C309.825 287.886 309.756 288.051 309.791 288.074Z" fill="#263238"/>
<path d="M303.408 286.338C303.362 286.405 303.517 286.57 303.77 286.658C304.023 286.746 304.247 286.719 304.259 286.636C304.27 286.559 304.092 286.465 303.874 286.388C303.655 286.311 303.454 286.267 303.408 286.338Z" fill="#263238"/>
<path d="M303.546 285.881C303.54 285.958 303.77 286.03 304.069 286.03C304.368 286.036 304.603 285.975 304.597 285.892C304.592 285.815 304.356 285.744 304.075 285.744C303.793 285.744 303.558 285.804 303.546 285.881Z" fill="#263238"/>
<path d="M281.906 286.261V281.547L290.713 281.492L290.787 288.536L290.241 288.575C287.811 288.723 277.879 289.015 276.253 288.536C274.432 287.996 281.906 286.261 281.906 286.261Z" fill="#3399FF"/>
<path d="M276.041 288.107C276.041 288.184 279.332 288.25 283.4 288.25C287.461 288.25 290.759 288.184 290.759 288.107C290.759 288.029 287.467 287.963 283.4 287.963C279.332 287.963 276.041 288.024 276.041 288.107Z" fill="#263238"/>
<path d="M281.751 287.22C281.825 287.181 281.762 286.933 281.573 286.691C281.383 286.443 281.153 286.316 281.096 286.372C281.038 286.427 281.159 286.636 281.331 286.862C281.504 287.088 281.676 287.258 281.751 287.22Z" fill="#263238"/>
<path d="M281.188 287.534C281.263 287.506 281.222 287.225 281.05 286.933C280.878 286.636 280.648 286.46 280.585 286.509C280.522 286.559 280.631 286.801 280.792 287.071C280.952 287.346 281.107 287.561 281.188 287.534Z" fill="#263238"/>
<path d="M288.105 288.074C288.139 288.096 288.271 287.974 288.461 287.765C288.65 287.561 288.903 287.269 289.23 287.021C289.558 286.779 289.92 286.652 290.184 286.625C290.454 286.592 290.626 286.63 290.644 286.586C290.661 286.553 290.494 286.438 290.178 286.421C289.868 286.399 289.426 286.515 289.052 286.796C288.679 287.071 288.443 287.407 288.294 287.644C288.139 287.886 288.07 288.051 288.105 288.074Z" fill="#263238"/>
<path d="M281.722 286.338C281.682 286.405 281.831 286.57 282.084 286.658C282.337 286.746 282.561 286.719 282.572 286.636C282.584 286.559 282.406 286.465 282.187 286.388C281.963 286.311 281.768 286.267 281.722 286.338Z" fill="#263238"/>
<path d="M281.86 285.881C281.854 285.958 282.084 286.03 282.383 286.03C282.681 286.036 282.917 285.975 282.911 285.892C282.905 285.815 282.67 285.744 282.388 285.744C282.107 285.744 281.871 285.804 281.86 285.881Z" fill="#263238"/>
<path d="M249.46 146.415C249.69 146.189 250.253 146.294 250.253 146.294C250.253 146.294 250.155 145.649 250.258 145.341C250.362 145.027 251.086 145.087 251.086 145.087C251.086 145.087 251.132 144.79 251.068 144.305C251.051 144.184 251.12 144.096 251.235 144.03C251.58 143.832 252.315 143.843 252.315 143.843C252.757 143.54 250.965 141.133 250.299 140.362C249.65 139.602 249.759 138.99 250.35 138.99C250.753 138.99 252.849 141.304 253.487 142.08C254.125 142.857 255.842 145.016 255.9 143.292C255.957 141.568 256.681 140.263 257.129 140.042C257.583 139.822 258.066 140.34 257.818 140.819C257.617 141.204 257.491 141.953 257.416 142.515C257.359 142.978 257.376 143.452 257.485 143.909C257.784 145.198 258.106 146.04 258.261 146.398V149.654C258.261 149.654 269.938 158.91 270.84 159.73C271.656 160.468 288.857 157.849 292.12 157.519C293.01 157.425 294.332 157.249 295.481 157.299C296.894 157.359 297.147 157.552 298.566 157.568C302.903 157.624 306.522 158.031 309.21 158.466C312.462 158.995 315.133 161.215 316.138 164.228C319.43 174.087 324.95 195.367 326.277 208.475C327.322 210.359 330.431 214.62 330.902 215.859C331.827 218.271 331.603 218.349 331.293 218.409C330.46 218.558 329.501 214.229 329.144 215.275C328.788 216.322 330.954 220.436 330.075 220.557C328.926 220.717 328.013 216.167 327.909 215.787C327.806 215.418 327.226 215.545 327.341 215.881C327.507 216.366 329.121 221.505 328.001 221.67C327.381 221.763 327.312 220.673 327.312 220.673C327.312 220.673 326.169 215.76 325.64 215.853C325.106 215.947 325.675 218.855 325.939 219.825C326.203 220.783 325.83 221.29 325.296 221.047C324.928 220.882 324.049 217.941 323.808 216.977C323.572 216.013 322.963 213.364 322.153 214.901C321.343 216.437 320.114 217.33 319.608 217.352C319.103 217.368 318.89 216.702 319.327 216.366C319.683 216.096 320.125 215.473 320.436 214.989C320.694 214.592 320.884 214.157 320.987 213.7C321.389 211.937 321.389 210.913 321.389 210.913L322.153 208.751C320.866 202.643 316.489 186.309 311.158 174.858L308.963 179.187L308.01 182.393L313.858 196.24L288.92 195.926L292.637 182.189L288.122 167.868C283.233 167.973 270.675 168.149 268.567 167.246C265.93 166.111 255.043 151.193 255.043 151.193C254.123 150.493 250.46 148.194 249.77 147.539C249.776 147.539 248.96 146.905 249.46 146.415Z" fill="#FFBE9D"/>
<path d="M314.944 186.039C314.22 183.671 310.503 171.961 310.503 171.961C310.503 171.961 308.676 181.506 309.159 182.657C309.71 183.985 310.727 185.499 310.727 185.499C314.944 191.657 314.392 194.736 314.392 194.736L288.92 193.992C288.857 190.578 290.965 182.635 291.408 181.368C291.85 180.101 290.385 175.948 290.385 175.948C290.385 175.948 286.817 173.015 286.926 171.572C287.15 168.664 288.116 167.857 288.116 167.857L272.617 168.403L273.105 158.318L295.383 156.18C296.153 158.284 303.173 157.254 303.173 157.254C310.75 157.491 311.204 158.83 314.363 161.176C317.523 163.523 322.722 183.66 322.722 183.66L314.944 186.039Z" fill="#3399FF"/>
<path d="M299.875 183.66C299.875 183.698 300.387 183.731 301.22 183.726C302.047 183.72 303.196 183.671 304.454 183.549C305.712 183.428 306.849 183.257 307.659 183.103C308.475 182.949 308.969 182.822 308.963 182.784C308.958 182.745 308.446 182.8 307.625 182.905C306.803 183.004 305.677 183.142 304.425 183.263C303.173 183.384 302.035 183.467 301.214 183.522C300.387 183.577 299.875 183.621 299.875 183.66Z" fill="#263238"/>
<path d="M298.135 181.583C298.123 181.616 298.652 181.809 299.525 182.04C300.398 182.266 301.627 182.519 303.006 182.679C304.385 182.833 305.643 182.866 306.545 182.844C307.453 182.822 308.01 182.751 308.01 182.712C308.01 182.668 307.447 182.668 306.545 182.641C305.643 182.613 304.402 182.552 303.041 182.393C301.679 182.239 300.456 182.018 299.571 181.842C298.692 181.666 298.146 181.539 298.135 181.583Z" fill="#263238"/>
<path d="M289.564 172.319C289.523 172.324 289.587 172.803 289.736 173.563C289.885 174.324 290.115 175.37 290.408 176.521C290.701 177.667 291 178.702 291.235 179.44C291.471 180.184 291.643 180.636 291.683 180.625C291.724 180.614 291.626 180.145 291.442 179.391C291.224 178.532 290.977 177.546 290.701 176.455C290.42 175.365 290.167 174.384 289.943 173.525C289.747 172.77 289.61 172.308 289.564 172.319Z" fill="#263238"/>
<path d="M314.674 184.64C314.697 184.717 316.455 184.326 318.597 183.764C320.746 183.202 322.463 182.685 322.44 182.608C322.418 182.53 320.66 182.927 318.517 183.483C316.374 184.045 314.651 184.563 314.674 184.64Z" fill="#263238"/>
<path d="M287.834 167.731C287.834 167.742 288.07 167.769 288.495 167.725C288.914 167.681 289.535 167.587 290.247 167.323C290.96 167.064 291.775 166.64 292.534 165.99C293.292 165.346 293.97 164.453 294.401 163.407C294.837 162.36 294.987 161.27 294.918 160.3C294.849 159.331 294.584 158.455 294.131 157.844C293.683 157.221 293.091 156.924 292.677 156.819C292.47 156.764 292.298 156.753 292.189 156.759C292.074 156.764 292.017 156.775 292.017 156.781C292.017 156.808 292.252 156.797 292.643 156.924C293.022 157.056 293.562 157.365 293.958 157.96C294.74 159.138 294.958 161.292 294.125 163.302C293.706 164.31 293.068 165.164 292.35 165.792C291.632 166.425 290.856 166.86 290.173 167.136C288.788 167.687 287.829 167.67 287.834 167.731Z" fill="#263238"/>
<path d="M274.449 168.204C274.53 168.204 274.593 165.929 274.587 163.131C274.582 160.328 274.513 158.053 274.426 158.053C274.346 158.053 274.283 160.328 274.289 163.131C274.294 165.935 274.363 168.21 274.449 168.204Z" fill="#263238"/>
<path d="M295.521 156.803C295.458 155.575 295.326 154.187 295.326 154.187C295.326 154.187 292.154 153.851 291.965 150.711C291.775 147.572 291.965 140.329 291.965 140.329L297.738 137.509L304.092 142.311L303.127 158.009L297.284 158.367C296.36 158.428 295.567 157.723 295.521 156.803Z" fill="#FFBE9D"/>
<path d="M294.952 148.227C294.941 148.227 294.941 148.288 295.004 148.365C295.061 148.436 295.188 148.524 295.366 148.519C295.733 148.502 296.09 148.111 296.216 147.638C296.279 147.395 296.279 147.153 296.233 146.938C296.193 146.729 296.067 146.52 295.889 146.464C295.802 146.431 295.71 146.437 295.647 146.47C295.578 146.503 295.538 146.553 295.515 146.597C295.475 146.69 295.504 146.745 295.515 146.74C295.527 146.74 295.527 146.69 295.573 146.63C295.619 146.569 295.728 146.514 295.843 146.575C295.963 146.63 296.049 146.778 296.078 146.966C296.113 147.153 296.113 147.373 296.049 147.588C295.934 148.012 295.624 148.365 295.354 148.398C295.216 148.414 295.107 148.365 295.044 148.315C294.987 148.266 294.964 148.221 294.952 148.227Z" fill="#EB996E"/>
<path d="M289.994 138.632C290.437 137.189 292.04 136.468 293.499 136.071C295.722 135.465 298.129 135.201 300.295 135.966C302.466 136.732 305.074 138.081 305.074 140.378C306.355 140.279 307.085 141.353 307.596 142.686C307.895 143.474 308.096 144.349 308.142 145.22L308.165 145.214C308.331 148.221 309.205 152.369 311.238 154.594C312.364 155.822 313.979 156.671 314.633 158.202C315.202 159.535 314.909 161.105 315.449 162.448C315.926 163.633 316.977 164.475 317.73 165.505C319.373 167.753 319.482 170.925 318.276 173.431C317.069 175.937 314.679 177.772 312.025 178.614C309.371 179.457 306.476 179.363 303.776 178.686C301.783 178.19 299.841 177.364 298.25 176.059C296.658 174.759 295.44 172.947 295.079 170.925C294.676 168.678 295.331 166.392 295.814 164.156C297.342 157.084 296.905 156.72 294.975 150.16C294.929 150.045 294.906 149.923 294.872 149.808C294.849 149.72 294.82 149.637 294.797 149.549H294.803C294.751 149.29 294.711 149.031 294.711 148.767C295.268 148.976 295.946 148.838 296.371 148.42C296.802 148.007 296.957 147.335 296.762 146.773C296.538 146.123 295.917 145.693 295.28 145.434C294.642 145.176 293.958 145.049 293.332 144.763C292.005 144.157 291.086 142.901 290.46 141.584C290.023 140.665 289.696 139.607 289.994 138.632Z" fill="#263238"/>
<path d="M294.722 148.359C294.705 148.354 294.59 148.557 294.418 148.904C294.246 149.251 294.016 149.742 293.763 150.309L293.717 150.414L293.838 150.425C294.027 150.441 294.223 150.458 294.424 150.474C294.826 150.502 295.159 150.546 295.55 150.54C295.613 150.529 295.682 150.474 295.699 150.414C295.722 150.353 295.716 150.303 295.71 150.259C295.693 150.171 295.676 150.111 295.659 150.034L295.555 149.643C295.429 149.169 295.337 148.877 295.314 148.882C295.291 148.888 295.337 149.191 295.435 149.67L295.515 150.067C295.544 150.199 295.596 150.397 295.521 150.386C295.234 150.375 294.826 150.331 294.447 150.303C294.246 150.287 294.056 150.276 293.861 150.259L293.93 150.37C294.177 149.802 294.383 149.301 294.527 148.943C294.671 148.585 294.745 148.365 294.722 148.359Z" fill="#3399FF"/>
<path d="M314.386 194.736L288.914 193.992L277.839 235.489L279.878 283.089H293.361L291.689 236.503L301.541 207.614L300.025 284.928L313.634 285.121L315.07 212.444C315.127 210.423 315.823 205.868 315.564 203.863L314.386 194.736Z" fill="#263238"/>
<path d="M298.152 208.197C298.158 208.236 298.634 208.214 299.399 208.126C300.163 208.038 301.22 207.883 302.374 207.663C303.529 207.437 304.563 207.189 305.304 206.986C306.045 206.782 306.493 206.628 306.487 206.589C306.464 206.512 304.615 206.942 302.317 207.382C300.019 207.828 298.14 208.12 298.152 208.197Z" fill="#455A64"/>
<path d="M279.999 280.473C279.999 280.55 283.049 280.616 286.818 280.616C290.586 280.616 293.637 280.55 293.637 280.473C293.637 280.395 290.586 280.329 286.818 280.329C283.055 280.335 279.999 280.395 279.999 280.473Z" fill="#455A64"/>
<path d="M300.145 282.924C300.145 283.001 303.104 283.067 306.758 283.067C310.411 283.067 313.37 283.001 313.37 282.924C313.37 282.846 310.411 282.78 306.758 282.78C303.11 282.78 300.145 282.841 300.145 282.924Z" fill="#455A64"/>
<path d="M301.903 282.725C301.984 282.725 302.346 265.832 302.702 244.996C303.064 224.154 303.282 207.256 303.202 207.256C303.121 207.256 302.759 224.148 302.403 244.99C302.041 265.827 301.817 282.725 301.903 282.725Z" fill="#455A64"/>
<path d="M281.814 280.473C281.82 280.473 281.82 280.395 281.82 280.247C281.814 280.087 281.814 279.867 281.808 279.586C281.791 278.991 281.762 278.137 281.734 277.052C281.653 274.832 281.538 271.654 281.395 267.727C281.079 259.84 280.648 248.973 280.165 236.965C280.16 236.855 280.154 236.745 280.154 236.64L280.148 236.679C283.17 225.09 285.899 214.614 287.875 207.019C288.846 203.235 289.633 200.172 290.178 198.035C290.443 196.983 290.644 196.163 290.787 195.59C290.85 195.32 290.902 195.111 290.937 194.951C290.971 194.808 290.983 194.73 290.977 194.73C290.971 194.73 290.948 194.802 290.908 194.945C290.862 195.1 290.804 195.309 290.73 195.573C290.575 196.146 290.351 196.961 290.063 198.008C289.495 200.139 288.673 203.196 287.668 206.969C285.669 214.559 282.911 225.03 279.855 236.613L279.849 236.635V236.657C279.855 236.756 279.861 236.872 279.861 236.982C280.372 248.984 280.837 259.856 281.176 267.738C281.36 271.665 281.504 274.843 281.607 277.058C281.665 278.148 281.711 278.996 281.739 279.591C281.757 279.872 281.774 280.087 281.78 280.252C281.797 280.401 281.808 280.478 281.814 280.473Z" fill="#455A64"/>
<path d="M286.209 235.676C286.197 235.754 287.53 236.04 289.184 236.31C290.425 236.514 291.494 236.657 291.959 236.679V236.569C291.804 236.607 291.718 236.64 291.724 236.662C291.729 236.684 291.816 236.69 291.976 236.684L292.327 236.668L291.976 236.569C291.528 236.442 290.471 236.233 289.23 236.029C287.576 235.754 286.22 235.594 286.209 235.676Z" fill="#455A64"/>
<path d="M286.462 237.257C286.473 237.334 287.668 237.246 289.144 237.142C290.621 237.031 291.816 236.938 291.816 236.861C291.816 236.784 290.609 236.745 289.121 236.855C287.639 236.965 286.456 237.18 286.462 237.257Z" fill="#455A64"/>
<path opacity="0.2" d="M314.501 195.612C313.887 196.443 313.008 196.735 311.985 196.895C310.963 197.055 309.923 196.95 308.895 196.84C302.317 196.141 295.354 195.496 288.915 193.992C297.25 194.439 306.051 194.29 314.386 194.736C314.386 194.736 314.455 195.287 314.473 195.419" fill="black"/>
<g opacity="0.2">
<path opacity="0.2" d="M305.913 206.875L301.214 224.352L301.541 207.614L305.913 206.875Z" fill="black"/>
</g>
<path d="M156.428 317.704L119.497 338.151C119.183 338.323 118.802 338.323 118.488 338.151L64.2491 308.115C63.5765 307.742 63.5765 306.811 64.2491 306.438L101.181 285.991C101.494 285.819 101.876 285.819 102.189 285.991L156.428 316.027C157.109 316.4 157.109 317.332 156.428 317.704Z" fill="#3399FF"/>
<path d="M154.089 316.242L118.137 336.151L66.0948 307.341L102.055 287.431L154.089 316.242Z" fill="url(#paint0_linear_5_394)"/>
<path d="M105.731 295.451L89.2676 304.567C89.1406 304.639 88.9238 304.625 88.7744 304.546C88.6324 304.467 88.61 304.345 88.737 304.273L105.2 295.157C105.327 295.086 105.544 295.1 105.693 295.179C105.843 295.265 105.858 295.387 105.731 295.451Z" fill="#3399FF"/>
<path d="M107.263 296.304L90.7995 305.42C90.6725 305.492 90.4557 305.478 90.3063 305.399C90.1643 305.32 90.1419 305.198 90.2689 305.126L106.732 296.01C106.859 295.938 107.076 295.953 107.225 296.032C107.375 296.11 107.39 296.232 107.263 296.304Z" fill="#3399FF"/>
<path d="M100.955 301.493L92.3317 306.266C92.2046 306.338 91.9879 306.323 91.8385 306.244C91.6965 306.166 91.6741 306.044 91.8011 305.972L100.425 301.199C100.552 301.127 100.769 301.142 100.918 301.22C101.06 301.306 101.083 301.428 100.955 301.493Z" fill="#3399FF"/>
<path d="M84.9787 310.165L81.8775 310.172C81.4664 310.172 81.1302 309.985 81.1376 309.763C81.1376 309.534 81.4739 309.348 81.8849 309.348L84.082 309.34L84.0969 306.481C84.0969 306.252 84.4332 306.065 84.8442 306.065C85.2552 306.065 85.5915 306.251 85.584 306.474L85.5616 309.835C85.5691 310.021 85.3001 310.165 84.9787 310.165Z" fill="#3399FF"/>
<path d="M91.062 307.814L90.9425 307.878L85.7189 304.983L85.831 304.918L91.062 307.814Z" fill="#3399FF"/>
<path d="M104.513 306.409L89.8656 314.515C89.7386 314.586 89.5218 314.572 89.3724 314.493C89.2304 314.414 89.208 314.293 89.335 314.221L103.982 306.115C104.109 306.044 104.326 306.058 104.475 306.137C104.625 306.216 104.64 306.337 104.513 306.409Z" fill="#3399FF"/>
<path d="M106.045 307.255L91.3981 315.361C91.271 315.432 91.0543 315.418 90.9049 315.339C90.7629 315.26 90.7405 315.138 90.8675 315.067L105.515 306.961C105.642 306.889 105.858 306.904 106.008 306.982C106.157 307.068 106.172 307.19 106.045 307.255Z" fill="#3399FF"/>
<path d="M100.583 311.985L92.9376 316.22C92.8106 316.292 92.5939 316.278 92.4444 316.199C92.3024 316.12 92.28 315.998 92.407 315.926L100.052 311.691C100.179 311.619 100.396 311.633 100.545 311.712C100.687 311.791 100.702 311.913 100.583 311.985Z" fill="#3399FF"/>
<path d="M114.102 304.324L111 304.331C110.589 304.331 110.253 304.144 110.26 303.922C110.26 303.693 110.597 303.507 111.008 303.507L113.205 303.499L113.22 300.64C113.22 300.411 113.556 300.224 113.967 300.224C114.378 300.224 114.714 300.411 114.707 300.633L114.684 303.994C114.684 304.173 114.423 304.324 114.102 304.324Z" fill="#3399FF"/>
<path d="M110.918 307.097L110.798 307.162L105.575 304.274L105.694 304.202L110.918 307.097Z" fill="#3399FF"/>
<path d="M122.604 304.797L106.141 313.913C106.014 313.984 105.798 313.97 105.648 313.891C105.506 313.812 105.484 313.691 105.611 313.619L122.074 304.503C122.201 304.431 122.418 304.445 122.567 304.524C122.717 304.603 122.731 304.725 122.604 304.797Z" fill="#3399FF"/>
<path d="M124.137 305.642L107.674 314.759C107.547 314.83 107.33 314.816 107.18 314.737C107.038 314.658 107.016 314.537 107.143 314.465L123.606 305.349C123.733 305.277 123.95 305.291 124.099 305.37C124.249 305.456 124.264 305.578 124.137 305.642Z" fill="#3399FF"/>
<path d="M117.83 310.838L109.206 315.611C109.079 315.683 108.862 315.669 108.712 315.59C108.571 315.511 108.548 315.389 108.675 315.318L117.299 310.545C117.426 310.473 117.643 310.487 117.792 310.566C117.934 310.645 117.949 310.767 117.83 310.838Z" fill="#3399FF"/>
<path d="M101.853 319.51L98.7513 319.517C98.3403 319.517 98.004 319.331 98.0115 319.109C98.0115 318.879 98.3478 318.693 98.7588 318.693L100.956 318.686L100.971 315.826C100.971 315.597 101.307 315.411 101.718 315.411C102.129 315.411 102.465 315.597 102.458 315.819L102.435 319.18C102.435 319.36 102.174 319.51 101.853 319.51Z" fill="#3399FF"/>
<path d="M107.928 317.159L107.816 317.224L102.593 314.328L102.705 314.264L107.928 317.159Z" fill="#3399FF"/>
<path d="M121.387 315.747L106.739 323.853C106.612 323.925 106.396 323.91 106.246 323.832C106.104 323.753 106.082 323.631 106.209 323.559L120.856 315.454C120.983 315.382 121.2 315.396 121.349 315.475C121.499 315.561 121.514 315.683 121.387 315.747Z" fill="#3399FF"/>
<path d="M122.918 316.6L108.271 324.706C108.144 324.778 107.928 324.763 107.778 324.685C107.636 324.606 107.614 324.484 107.741 324.412L122.388 316.307C122.515 316.235 122.731 316.249 122.881 316.328C123.03 316.407 123.045 316.529 122.918 316.6Z" fill="#3399FF"/>
<path d="M117.456 321.323L109.811 325.559C109.684 325.63 109.467 325.616 109.317 325.537C109.175 325.458 109.153 325.337 109.28 325.265L116.925 321.029C117.052 320.958 117.269 320.972 117.418 321.051C117.56 321.13 117.575 321.251 117.456 321.323Z" fill="#3399FF"/>
<path d="M130.975 313.662L127.874 313.669C127.463 313.669 127.127 313.483 127.134 313.261C127.134 313.031 127.471 312.845 127.882 312.845L130.079 312.838L130.094 309.978C130.094 309.749 130.43 309.563 130.841 309.563C131.252 309.563 131.588 309.749 131.581 309.971L131.558 313.332C131.558 313.519 131.297 313.662 130.975 313.662Z" fill="#3399FF"/>
<path d="M127.792 316.443L127.672 316.507L122.449 313.612L122.568 313.547L127.792 316.443Z" fill="#3399FF"/>
</g>
<defs>
<filter id="filter0_d_5_394" x="0" y="0" width="386" height="355" filterUnits="userSpaceOnUse" color-interpolation-filters="sRGB">
<feFlood flood-opacity="0" result="BackgroundImageFix"/>
<feColorMatrix in="SourceAlpha" type="matrix" values="0 0 0 0 0 0 0 0 0 0 0 0 0 0 0 0 0 0 127 0" result="hardAlpha"/>
<feOffset dy="4"/>
<feGaussianBlur stdDeviation="2"/>
<feColorMatrix type="matrix" values="0 0 0 0 0 0 0 0 0 0 0 0 0 0 0 0 0 0 0.25 0"/>
<feBlend mode="normal" in2="BackgroundImageFix" result="effect1_dropShadow_5_394"/>
<feBlend mode="normal" in="SourceGraphic" in2="effect1_dropShadow_5_394" result="shape"/>
</filter>
<linearGradient id="paint0_linear_5_394" x1="92.1171" y1="321.745" x2="108.991" y2="291.271" gradientUnits="userSpaceOnUse">
<stop stop-color="#FAF9F7"/>
<stop offset="1" stop-color="#EAE7DC"/>
</linearGradient>
<clipPath id="clip0_5_394">
<rect width="378" height="347" fill="white" transform="translate(4)"/>
</clipPath>
</defs>
</svg>
