<?xml version="1.0" standalone="no"?>
<!DOCTYPE svg PUBLIC "-//W3C//DTD SVG 20010904//EN"
 "http://www.w3.org/TR/2001/REC-SVG-20010904/DTD/svg10.dtd">
<svg version="1.0" xmlns="http://www.w3.org/2000/svg"
 width="500.000000pt" height="500.000000pt" viewBox="0 0 500.000000 500.000000"
 preserveAspectRatio="xMidYMid meet">
<metadata>
Created by potrace 1.16, written by Peter Selinger 2001-2019
</metadata>
<g transform="translate(0.000000,500.000000) scale(0.100000,-0.100000)"
fill="#000000" stroke="none">
<path d="M329 3487 c-55 -37 -58 -56 -58 -439 l-1 -348 -45 0 c-102 0 -160
-55 -152 -144 4 -42 10 -55 41 -83 l36 -33 739 0 c713 0 742 1 793 20 77 29
151 97 190 178 l33 67 0 187 c0 213 -5 230 -83 258 -37 13 -47 13 -84 0 -27
-10 -50 -27 -65 -49 -21 -31 -23 -45 -23 -175 0 -209 -14 -226 -194 -226
l-104 0 -4 98 c-3 78 -9 108 -30 152 -33 72 -101 140 -174 176 l-59 29 -272 3
-271 4 -4 126 c-4 142 -17 181 -68 207 -43 22 -101 19 -141 -8z m713 -608 c28
-15 48 -69 48 -129 l0 -50 -275 0 -275 0 0 95 0 95 241 0 c153 0 248 -4 261
-11z"/>
<path d="M2120 3492 c-19 -9 -43 -31 -53 -49 -17 -29 -17 -56 -10 -483 l8
-452 33 -29 c26 -23 41 -29 80 -29 27 0 57 7 70 16 52 36 52 39 52 521 0 497
2 481 -66 509 -44 18 -72 18 -114 -4z"/>
<path d="M4550 3119 c-566 -491 -965 -1086 -1202 -1794 -40 -121 -71 -196 -94
-227 l-34 -48 68 0 c37 0 83 3 103 6 l35 6 39 152 c135 539 401 1080 740 1506
103 129 283 327 379 416 44 41 77 74 75 74 -2 0 -52 -41 -109 -91z"/>
<path d="M2709 3135 c-107 -34 -205 -132 -235 -232 -12 -41 -15 -91 -12 -223
3 -167 3 -170 29 -195 36 -37 81 -44 266 -45 l161 0 4 -139 c3 -132 4 -141 27
-165 49 -52 133 -52 182 0 l24 26 0 366 0 367 -34 63 c-62 115 -165 180 -294
188 -47 2 -88 -1 -118 -11z m164 -255 c30 -24 47 -75 47 -142 l0 -48 -110 0
-110 0 0 48 c0 106 38 162 110 162 22 0 48 -8 63 -20z"/>
<path d="M1615 2342 c-60 -20 -100 -83 -92 -145 13 -94 123 -142 205 -89 54
35 70 136 30 187 -34 44 -92 63 -143 47z"/>
<path d="M1910 2148 c0 -8 49 -177 58 -199 8 -19 26 -31 70 -47 135 -50 316
-186 498 -374 l108 -113 -68 100 c-194 282 -428 515 -608 606 -32 16 -58 28
-58 27z"/>
</g>
</svg>
